<?xml version="1.0" encoding="UTF-8" standalone="no"?>
<!-- Created with Inkscape (http://www.inkscape.org/) -->

<svg
   width="112.31974mm"
   height="145.48598mm"
   preserveAspectRatio="none"
   viewBox="0 0 112.31974 145.48598"
   version="1.1"
   id="svg5"
   xml:space="preserve"
   xmlns="http://www.w3.org/2000/svg"
   xmlns:svg="http://www.w3.org/2000/svg"><defs
     id="defs2" /><g
     id="layer1"
     transform="translate(-46.40974,-87.024324)"><path
       style="fill:#000000;stroke-width:0.132292"
       d="m 60.306757,232.24564 c -0.271512,-0.14552 -0.618507,-0.26458 -0.771104,-0.26458 -0.16619,0 -0.305193,-0.1061 -0.346638,-0.26458 -0.04901,-0.18742 -0.180448,-0.26459 -0.450635,-0.26459 -0.250869,0 -0.381446,-0.0679 -0.381446,-0.19843 0,-0.10915 0.125973,-0.32441 0.279939,-0.47838 0.230319,-0.23032 0.26901,-0.39369 0.218279,-0.92165 -0.03391,-0.35295 -0.132656,-0.72726 -0.219427,-0.83181 -0.127338,-0.15344 -0.457765,-0.17628 -1.713166,-0.11845 -0.85547,0.0394 -1.957676,0.0286 -2.449348,-0.0241 -0.795787,-0.0852 -0.908058,-0.13285 -1.022431,-0.43366 -0.07066,-0.18587 -0.224063,-0.93979 -0.340885,-1.67539 -0.189589,-1.19378 -0.195625,-1.94843 -0.0562,-7.02598 0.08591,-3.1287 0.214254,-6.67081 0.285201,-7.87135 0.07095,-1.20055 0.222838,-3.0152 0.337536,-4.03255 0.176096,-1.56194 0.199075,-3.21884 0.147693,-10.64948 -0.03997,-5.7803 -0.137611,-10.20693 -0.284561,-12.90079 -0.223711,-4.10104 -0.223711,-4.10104 -0.617044,-4.6302 -0.216334,-0.29105 -0.83023,-1.13548 -1.364213,-1.87653 -0.533983,-0.74104 -1.246339,-1.88069 -1.583012,-2.53255 -0.336674,-0.65187 -0.821807,-1.81181 -1.078074,-2.57765 -0.256267,-0.76584 -0.560022,-2.00744 -0.675011,-2.75911 -0.156283,-1.02159 -0.191498,-1.93451 -0.13947,-3.61562 0.04832,-1.56149 0.155714,-2.65335 0.351304,-3.57188 0.154937,-0.7276 0.459305,-1.85869 0.676373,-2.51354 0.217069,-0.65484 0.739316,-1.905 1.160549,-2.77812 0.421234,-0.87313 1.052277,-2.03399 1.402318,-2.57969 0.35004,-0.5457 0.906002,-1.34938 1.23547,-1.78594 0.329468,-0.43656 1.019097,-1.27 1.532508,-1.85208 0.513412,-0.58208 1.500259,-1.67468 2.192992,-2.42799 0.692734,-0.75331 1.422961,-1.45418 1.622727,-1.55749 0.199766,-0.1033 0.604716,-0.49335 0.899888,-0.86677 0.411602,-0.52071 0.527373,-0.77436 0.496756,-1.08835 -0.03903,-0.40024 -0.05695,-0.41029 -0.8006,-0.44908 -0.760677,-0.0397 -0.760677,-0.0397 -0.760677,-0.47404 0,-0.2389 -0.04052,-0.47489 -0.09005,-0.52442 -0.04953,-0.0495 -0.254331,0.0674 -0.455123,0.25972 -0.233462,0.22367 -0.444677,0.31922 -0.585873,0.26504 -0.174855,-0.0671 -0.202178,-0.18396 -0.13132,-0.56167 0.08948,-0.47695 0.08948,-0.47695 -0.303617,-0.19705 -0.216201,0.15395 -0.448762,0.27991 -0.516801,0.27991 -0.06804,0 -0.193649,-0.1535 -0.279133,-0.34112 -0.08548,-0.18762 -0.227677,-0.31704 -0.315985,-0.2876 -0.08831,0.0294 -0.233097,0.30406 -0.321754,0.61027 -0.08866,0.30621 -0.188824,1.40666 -0.222594,2.44545 -0.03377,1.03878 -0.12668,2.13112 -0.206464,2.42742 -0.07979,0.29629 -0.232946,0.61165 -0.340359,0.7008 -0.161918,0.13438 -0.220631,0.0974 -0.343539,-0.2161 -0.104833,-0.26744 -0.12435,-1.63721 -0.06665,-4.67766 0.04488,-2.36471 0.11787,-5.2039 0.162206,-6.3093 0.04434,-1.1054 0.04053,-2.2235 -0.0085,-2.48467 -0.04928,-0.26269 -0.554772,-1.16745 -1.131412,-2.02507 -0.57328,-0.85263 -1.521497,-2.16129 -2.107147,-2.90814 -0.585651,-0.74685 -1.355402,-1.78865 -1.71056,-2.3151 -0.355157,-0.52646 -0.832194,-1.32669 -1.060081,-1.77829 -0.227887,-0.4516 -0.566429,-1.27416 -0.752316,-1.82791 -0.185888,-0.55374 -0.46312,-1.58324 -0.616071,-2.28776 -0.201967,-0.93029 -0.278465,-1.75174 -0.279446,-3.00074 -0.0011,-1.43503 0.04595,-1.84917 0.284352,-2.50118 0.157137,-0.42976 0.285704,-0.91462 0.285704,-1.07747 0,-0.16285 0.120645,-0.68668 0.2681,-1.16409 0.147454,-0.4774 0.562101,-1.30757 0.921437,-1.84482 0.359337,-0.53726 1.090568,-1.39215 1.62496,-1.89977 0.534392,-0.50762 1.474081,-1.28139 2.088198,-1.7195 0.762791,-0.54416 1.112722,-0.87671 1.104412,-1.04955 -0.0067,-0.13914 -0.118948,-0.98733 -0.249463,-1.88487 -0.17911,-1.23171 -0.216139,-2.01028 -0.151002,-3.175 0.04747,-0.84871 0.118967,-2.37656 0.158894,-3.395197 0.04576,-1.16739 0.0057,-2.47436 -0.108222,-3.53532 -0.180817,-1.68323 -0.180817,-1.68323 0.421299,-1.89084 0.430546,-0.14845 1.506815,-0.24233 3.777116,-0.32946 1.74625,-0.067 4.841875,-0.19405 6.879166,-0.28229 2.037292,-0.0882 4.984088,-0.16479 6.548437,-0.17012 1.564349,-0.005 7.011458,0.0438 12.104687,0.10905 9.260411,0.11873 9.260411,0.11873 11.959561,-1.23446 1.48453,-0.74425 3.50859,-1.71159 4.49791,-2.14963 0.98933,-0.43804 2.513155,-1.08097 3.386275,-1.42872 0.87313,-0.34775 2.24235,-0.84281 3.04271,-1.10014 0.80037,-0.25732 1.8124,-0.53006 2.24896,-0.60609 0.43656,-0.076 1.29977,-0.17617 1.91823,-0.22252 0.64517,-0.0484 1.60379,-0.0181 2.24896,0.071 0.61846,0.0854 1.51143,0.26263 1.98437,0.39385 0.47295,0.13121 1.90169,0.62658 3.175,1.10082 1.27331,0.47424 2.91157,1.0454 3.64059,1.26925 0.72902,0.22385 2.18753,0.61418 3.24115,0.8674 1.05361,0.25322 2.63003,0.58195 3.50316,0.73053 0.87312,0.14857 2.77812,0.41962 4.23333,0.60232 1.45521,0.18271 2.97326,0.42676 3.37344,0.54235 0.40018,0.11558 1.02526,0.30052 1.38906,0.41097 0.4948,0.15022 1.7114,0.22532 4.82864,0.29807 3.41972,0.0798 4.27648,0.13755 4.77654,0.32193 0.33515,0.12357 0.79652,0.40766 1.02526,0.6313 0.22875,0.22364 0.42296,0.50373 0.43158,0.62243 0.009,0.1187 0.003,0.30511 -0.0119,0.41425 -0.0152,0.10914 -0.11436,0.29554 -0.22038,0.41423 -0.16885,0.18901 -0.16877,0.23979 6.6e-4,0.40923 0.10639,0.10639 0.36223,0.25779 0.56851,0.33644 0.20629,0.0787 0.59066,0.17853 0.85416,0.22196 0.26349,0.0434 0.62021,0.20136 0.7927,0.35096 0.25432,0.22057 0.42011,0.25602 0.8769,0.18752 0.54135,-0.0812 0.5633,-0.0709 0.5633,0.26306 0,0.19115 -0.0583,0.45642 -0.1295,0.58951 -0.0712,0.13308 -0.3137,0.30618 -0.53883,0.38466 -0.31512,0.10985 -0.39949,0.20971 -0.36659,0.43387 0.0235,0.16015 0.22132,0.38972 0.4396,0.51016 0.21829,0.12044 0.45057,0.37098 0.51619,0.55675 0.0656,0.185777 0.0844,0.428887 0.0416,0.540247 -0.0576,0.15004 -0.20839,0.1857 -0.58234,0.1377 -0.32187,-0.0413 -0.59612,0.004 -0.75724,0.12431 -0.23795,0.17812 -0.23987,0.20729 -0.0331,0.50253 0.13455,0.1921 0.21954,0.57349 0.21954,0.98515 0,0.36944 -0.0691,0.74084 -0.15362,0.82534 -0.11665,0.11664 -0.24237,0.10121 -0.52221,-0.0641 -0.30357,-0.17933 -0.42995,-0.18976 -0.71666,-0.0591 -0.19144,0.0872 -0.32416,0.23037 -0.29492,0.3181 0.0293,0.0877 0.3167,0.2232 0.63878,0.30105 0.5114,0.12361 0.63089,0.2247 0.94291,0.79771 0.19652,0.36089 0.39639,0.88632 0.44417,1.16762 0.054,0.318 0.26914,0.71345 0.56874,1.04546 0.26503,0.2937 1.26399,1.20837 2.21991,2.03261 0.95592,0.82423 2.25796,2.05042 2.89342,2.72486 0.63546,0.67443 1.41985,1.59632 1.74308,2.04865 0.32323,0.45232 0.71309,1.1667 0.86635,1.5875 0.21606,0.59325 0.2918,1.17313 0.33722,2.58186 0.0322,0.99922 -0.009,2.39363 -0.0926,3.09869 -0.0831,0.70506 -0.26596,1.54138 -0.40623,1.8585 -0.14028,0.31711 -0.54034,1.00312 -0.88903,1.52446 -0.34869,0.52133 -1.12987,1.46985 -1.73597,2.10782 -0.6061,0.63797 -1.49907,1.45026 -1.98438,1.80511 -0.48531,0.35484 -1.39756,0.9528 -2.02724,1.3288 -0.62967,0.376 -1.32543,0.85231 -1.54612,1.05847 -0.39387,0.36793 -0.3979,0.38464 -0.21813,0.9064 0.10072,0.29236 0.22285,0.831 0.2714,1.19698 0.0847,0.63838 0.0729,0.67277 -0.29065,0.84619 -0.30332,0.1447 -0.38719,0.2808 -0.42035,0.68203 -0.0336,0.40612 0.0369,0.59047 0.37132,0.97134 0.28523,0.32486 0.4002,0.57841 0.37215,0.82072 -0.0353,0.3048 -0.10111,0.35064 -0.50361,0.35064 -0.40677,0 -0.46811,0.0442 -0.50488,0.3638 -0.0416,0.3615 -0.0368,0.3638 0.76068,0.3638 0.80253,0 0.80253,0 0.80253,0.46718 0,0.2858 -0.0744,0.49571 -0.19158,0.54069 -0.10538,0.0404 -0.37144,-0.0327 -0.59125,-0.16256 -0.21981,-0.12985 -0.44015,-0.19559 -0.48965,-0.14608 -0.0495,0.0495 -0.0357,0.28449 0.0307,0.52221 0.0878,0.31426 0.26536,0.50557 0.6508,0.70105 0.5301,0.26883 0.5301,0.26883 0.16367,0.5723 -0.20153,0.1669 -0.36643,0.41131 -0.36643,0.54313 0,0.13182 0.18481,0.6346 0.41069,1.11729 0.34664,0.74076 0.38357,0.9103 0.23681,1.08713 -0.13956,0.16816 -0.3276,0.19212 -0.95284,0.12138 -0.77896,-0.0881 -0.77896,-0.0881 -0.68908,0.44386 0.0845,0.50044 0.0683,0.53739 -0.27317,0.62311 -0.35929,0.0902 -0.35656,0.0944 0.26334,0.40945 0.5769,0.29319 0.62338,0.35317 0.5884,0.7592 -0.0209,0.24247 0.0316,0.5247 0.11664,0.62716 0.12062,0.14535 0.098,0.27223 -0.10294,0.57704 -0.14166,0.2149 -0.25795,0.53153 -0.25843,0.70362 -5.3e-4,0.18945 0.18208,0.48047 0.46289,0.73767 0.41195,0.37734 0.47694,0.52978 0.58175,1.36454 0.0649,0.51686 0.15738,1.00346 0.20551,1.08134 0.0481,0.0779 0.21958,0.14158 0.38099,0.14158 0.16142,0 0.42124,0.0895 0.57738,0.19885 0.15615,0.10937 0.35625,0.42191 0.44468,0.69453 0.0884,0.27263 0.27807,0.66283 0.42143,0.86711 0.14336,0.20428 0.22102,0.41105 0.17257,0.45949 -0.0484,0.0485 -0.24841,-0.001 -0.44438,-0.11033 -0.19596,-0.10913 -0.55443,-0.4945 -0.79659,-0.85638 -0.24216,-0.36187 -0.51693,-0.67566 -0.6106,-0.6973 -0.0996,-0.023 -0.20514,0.13487 -0.25424,0.38034 -0.0462,0.23083 -0.0839,0.78471 -0.0839,1.23084 0,0.44614 0.0574,1.01132 0.12756,1.25596 0.0802,0.27977 0.58468,0.91751 1.35962,1.71892 0.67764,0.70077 1.62468,1.78014 2.10454,2.3986 0.47987,0.61846 1.30134,1.76941 1.82549,2.55766 0.52414,0.78825 1.18657,1.9162 1.47206,2.50655 0.28548,0.59034 0.52037,1.19557 0.52197,1.34494 0.002,0.14937 0.12652,0.53947 0.27761,0.86689 0.15109,0.32742 0.39088,1.13109 0.53287,1.78594 0.20328,0.93751 0.28768,2.11871 0.39699,5.55625 0.086,2.7031 0.0997,6.73346 0.0361,10.58333 -0.0565,3.41974 -0.0972,6.5749 -0.0905,7.01146 0.007,0.43656 0.024,2.34156 0.0384,4.23333 0.0208,2.72461 -0.0176,3.64324 -0.18443,4.41934 -0.13407,0.62355 -0.40242,1.30255 -0.73811,1.86761 -0.29011,0.48832 -0.87592,1.35712 -1.30182,1.93066 -0.42589,0.57355 -1.62545,2.02507 -2.66568,3.22562 -1.04024,1.20055 -2.02719,2.39117 -2.19323,2.64583 -0.16603,0.25467 -0.48984,0.62425 -0.71957,0.8213 -0.41768,0.35827 -0.41768,0.35827 0.27063,1.04297 0.56399,0.56104 0.69076,0.77111 0.70184,1.16309 0.0135,0.47837 0.0135,0.47837 -0.83988,0.44466 -0.85339,-0.0337 -0.85339,-0.0337 -0.44582,0.39688 0.22416,0.23682 0.46742,0.54965 0.54058,0.69517 0.0731,0.14552 0.17523,0.65153 0.22683,1.12448 0.0516,0.47294 0.17889,0.99387 0.28284,1.15761 0.17689,0.27865 0.16126,0.31464 -0.24404,0.56175 -0.23817,0.14521 -0.55969,0.26425 -0.71449,0.26452 -0.15481,2.6e-4 -0.3485,0.0813 -0.43043,0.17999 -0.0863,0.10395 -0.11357,0.35652 -0.0649,0.60006 0.0463,0.23131 0.18434,0.49284 0.30685,0.58118 0.1225,0.0883 0.26159,0.2648 0.30909,0.39213 0.068,0.18241 0.24251,0.23151 0.82277,0.23151 0.68707,0 0.72723,0.0171 0.59946,0.25588 -0.0753,0.14074 -0.13695,0.52769 -0.13695,0.8599 0,0.6021 -0.001,0.60401 -0.46302,0.60401 -0.32784,0 -0.46302,0.0592 -0.46302,0.20283 0,0.11156 0.15231,0.50341 0.33847,0.87077 0.18616,0.36736 0.3201,0.82464 0.29765,1.01616 -0.0322,0.27514 -0.13245,0.36681 -0.47747,0.43681 -0.24016,0.0487 -0.47561,0.12754 -0.52322,0.17515 -0.0476,0.0476 -0.10926,0.45634 -0.13701,0.90831 -0.0277,0.45196 0.0127,0.98545 0.09,1.18554 0.0772,0.20009 0.23122,0.3638 0.34216,0.3638 0.11094,0 0.20171,0.0863 0.20171,0.19187 0,0.10552 -0.094,0.24444 -0.2088,0.30871 -0.17782,0.0995 -0.15819,0.15003 0.13229,0.34036 0.23092,0.1513 0.3411,0.34204 0.3411,0.59047 0,0.25285 -0.16199,0.52516 -0.52089,0.87561 -0.28649,0.27976 -0.59463,0.68665 -0.68475,0.90422 -0.15383,0.37139 -0.13808,0.41677 0.2575,0.74192 0.35672,0.29319 0.42117,0.43477 0.42016,0.9229 -10e-4,0.55543 -0.0139,0.57339 -0.34688,0.48983 -0.19012,-0.0477 -0.66899,-0.0197 -1.06416,0.0624 -0.71847,0.14916 -0.71847,0.14916 -0.24962,0.66812 0.25786,0.28543 0.46885,0.60598 0.46885,0.71236 0,0.10638 -0.11515,0.25503 -0.25589,0.33035 -0.14074,0.0753 -0.37282,0.13694 -0.51573,0.13694 -0.14292,0 -0.58143,-0.16916 -0.97447,-0.3759 -0.39305,-0.20676 -0.97128,-0.41034 -1.28497,-0.45243 -0.36618,-0.0491 -0.70454,-0.20506 -0.94524,-0.43566 -0.37489,-0.35917 -0.37489,-0.35917 -0.78914,-0.0106 -0.22783,0.1917 -0.49897,0.34856 -0.60253,0.34856 -0.11264,0 -0.18828,0.13286 -0.18828,0.33073 0,0.21795 -0.0738,0.33073 -0.21634,0.33073 -0.11899,0 -0.35427,-0.14883 -0.52285,-0.33073 -0.17434,-0.18811 -0.45369,-0.33073 -0.64781,-0.33073 -0.18771,0 -0.55562,-0.0896 -0.81758,-0.19901 -0.26195,-0.10944 -0.96669,-0.25472 -1.56608,-0.32283 -0.59937,-0.0681 -1.2146,-0.0912 -1.36715,-0.0513 -0.15256,0.0399 -0.31313,0.18518 -0.35682,0.32284 -0.0437,0.13767 -0.16122,0.2503 -0.26116,0.2503 -0.0999,0 -0.22258,-0.0661 -0.27253,-0.14695 -0.0499,-0.0808 0.0756,-0.27966 0.27904,-0.44187 0.24336,-0.19404 0.34156,-0.36868 0.28712,-0.51056 -0.0455,-0.11862 -0.22941,-0.25246 -0.40867,-0.29745 -0.22348,-0.0561 -0.44756,0.008 -0.713,0.20439 -0.26255,0.19411 -0.53193,0.27236 -0.8373,0.24322 -0.40373,-0.0385 -0.44629,-0.0805 -0.41214,-0.40677 0.0261,-0.24913 -0.0232,-0.3638 -0.15635,-0.3638 -0.10694,0 -0.31756,0.1729 -0.46803,0.38423 -0.15048,0.21132 -0.27359,0.47423 -0.27359,0.58427 0,0.11003 0.16371,0.3222 0.3638,0.47148 0.20009,0.14929 0.28547,0.27331 0.18974,0.27562 -0.0957,0.002 -0.30409,-0.0639 -0.46302,-0.14719 -0.15893,-0.0833 -0.51992,-0.35797 -0.8022,-0.61046 -0.49611,-0.44376 -0.53893,-0.45617 -1.28284,-0.37201 -0.66756,0.0755 -0.8589,0.0418 -1.44302,-0.25418 -0.37039,-0.18768 -0.74561,-0.30057 -0.83383,-0.25085 -0.0882,0.0497 -0.47558,0.32902 -0.86079,0.62066 -0.48886,0.37012 -0.74231,0.48834 -0.8392,0.39145 -0.0969,-0.0969 0.005,-0.29774 0.33658,-0.66503 0.26147,-0.28942 0.4754,-0.56364 0.4754,-0.60939 0,-0.0457 -0.0804,-0.0832 -0.17859,-0.0832 -0.0982,0 -0.42513,0.1786 -0.72646,0.39688 -0.30132,0.21828 -0.57447,0.39687 -0.60699,0.39687 -0.0325,0 -0.0479,-0.15721 -0.0342,-0.34935 0.0137,-0.19214 -0.0477,-0.3751 -0.1365,-0.40657 -0.0888,-0.0315 -0.28203,0.14061 -0.42945,0.38241 -0.14743,0.24182 -0.26827,0.5696 -0.26854,0.7284 -2.7e-4,0.16497 -0.10593,0.32221 -0.24644,0.3668 -0.13528,0.0429 -0.3457,0.0398 -0.46762,-0.007 -0.12192,-0.0468 -0.40106,-0.34579 -0.62031,-0.66446 -0.21925,-0.31866 -0.45321,-0.5794 -0.51991,-0.5794 -0.0667,0 -0.18291,0.11515 -0.25823,0.2559 -0.0753,0.14073 -0.13695,0.45624 -0.13695,0.70114 0,0.24489 -0.0714,0.51669 -0.15875,0.60401 -0.0873,0.0873 -0.2659,0.15875 -0.39687,0.15875 -0.17639,0 -0.23813,-0.1029 -0.23813,-0.39688 0,-0.22049 -0.11759,-0.51447 -0.26458,-0.66146 -0.14552,-0.14552 -0.37327,-0.26458 -0.50611,-0.26458 -0.13283,0 -0.3794,0.14676 -0.54792,0.32615 -0.16957,0.1805 -0.31279,0.50591 -0.32071,0.72872 -0.0109,0.30582 -0.062,0.38153 -0.21276,0.31501 -0.10914,-0.0481 -0.45819,-0.12306 -0.77566,-0.16648 -0.57637,-0.0788 -0.57682,-0.0793 -0.30078,-0.32811 0.15205,-0.13706 0.24458,-0.30077 0.20562,-0.3638 -0.039,-0.063 -0.21335,-0.11462 -0.38753,-0.11462 -0.17419,0 -0.46736,-0.0686 -0.65151,-0.15254 -0.29629,-0.135 -0.41331,-0.0976 -1.01714,0.32511 -0.62555,0.43791 -0.70524,0.46161 -0.95762,0.28483 -0.15141,-0.10604 -0.43335,-0.19281 -0.62653,-0.19281 -0.19319,0 -0.42535,0.0893 -0.51593,0.19844 -0.0906,0.10914 -0.27646,0.19843 -0.41308,0.19843 -0.18779,0 -0.24838,-0.0968 -0.24838,-0.39687 0,-0.26459 -0.0661,-0.39688 -0.19844,-0.39688 -0.10914,0 -0.19844,0.0553 -0.19844,0.12277 0,0.0675 -0.3423,0.1617 -0.76067,0.20928 -0.41838,0.0476 -0.86917,0.11677 -1.00177,0.15377 -0.22705,0.0633 -0.229,0.0439 -0.0336,-0.33407 0.12688,-0.24536 0.15737,-0.43231 0.0785,-0.48109 -0.071,-0.0439 -0.24866,-0.0158 -0.39483,0.0625 -0.14616,0.0782 -0.30267,0.28933 -0.3478,0.46914 -0.0629,0.25066 -0.16876,0.32691 -0.45376,0.32691 -0.20445,0 -0.46588,-0.0361 -0.58098,-0.0803 -0.11509,-0.0442 -0.20925,-0.22275 -0.20925,-0.39688 0,-0.17411 -0.0744,-0.31632 -0.16537,-0.31602 -0.091,0 -0.45823,0.14914 -0.81617,0.33073 -0.35794,0.1816 -0.73375,0.33018 -0.83514,0.33018 -0.11523,0 -0.16881,-0.11159 -0.14294,-0.29766 0.0319,-0.2296 -0.0325,-0.30809 -0.28193,-0.3433 -0.19373,-0.0273 -0.38906,0.0443 -0.48735,0.1787 -0.13886,0.18991 -0.49526,0.23445 -2.32252,0.29032 -1.18716,0.0363 -2.83391,0.006 -3.65943,-0.0683 -1.24599,-0.11149 -1.55298,-0.18318 -1.80721,-0.42202 -0.16844,-0.15823 -0.41575,-0.26653 -0.54957,-0.24065 -0.1879,0.0363 -0.23351,0.1445 -0.20027,0.47499 0.0251,0.24915 -0.0178,0.42794 -0.10249,0.42794 -0.08,0 -0.20212,-0.14883 -0.27128,-0.33073 -0.0692,-0.1819 -0.21538,-0.33073 -0.32493,-0.33073 -0.10956,0 -0.23655,0.14883 -0.2822,0.33073 -0.0457,0.1819 -0.16889,0.33073 -0.27385,0.33073 -0.10496,0 -0.38782,-0.21502 -0.62858,-0.47783 -0.338505,-0.36949 -0.501935,-0.45743 -0.720865,-0.38796 -0.15825,0.0502 -0.28312,0.20057 -0.28312,0.34088 0,0.13806 -0.11935,0.31489 -0.26523,0.39296 -0.14588,0.0781 -0.67,0.15419 -1.1647,0.16915 -0.65822,0.0199 -0.99122,-0.0329 -1.24152,-0.19692 -0.3253,-0.21315 -0.35349,-0.21148 -0.5756,0.034 -0.12844,0.14193 -0.33986,0.25806 -0.46981,0.25806 -0.12995,0 -0.27652,-0.0651 -0.32571,-0.14471 -0.0522,-0.0844 -0.28972,-0.11553 -0.57005,-0.0747 -0.26433,0.0385 -0.77827,0.13896 -1.14207,0.22323 -0.3638,0.0843 -1.29437,0.18251 -2.067917,0.21828 -1.324624,0.0613 -1.422338,0.048 -1.679261,-0.22775 -0.272796,-0.29281 -0.272796,-0.29281 -0.86605,0.0548 -0.32629,0.19123 -0.733313,0.34767 -0.904496,0.34767 -0.22434,0 -0.353068,-0.1108 -0.461045,-0.39687 -0.08239,-0.21828 -0.213372,-0.39688 -0.291066,-0.39688 -0.0777,0 -0.175708,0.16372 -0.217809,0.36381 -0.0421,0.20009 -0.11981,0.44624 -0.172688,0.547 -0.05288,0.10075 -0.153514,0.1745 -0.223631,0.16388 -0.07012,-0.0106 -0.129061,-0.0931 -0.130985,-0.1832 -0.0019,-0.0901 -0.05008,-0.2383 -0.107026,-0.32925 -0.05694,-0.0909 -0.312289,-0.16536 -0.56744,-0.16536 -0.255151,0 -0.593942,0.0682 -0.752869,0.15161 -0.158928,0.0834 -0.3368,0.23262 -0.395273,0.33165 -0.05847,0.099 -0.353472,0.30615 -0.655553,0.46026 -0.450367,0.22976 -0.925715,0.30122 -2.640522,0.39698 -1.672333,0.0934 -2.177053,0.0807 -2.519445,-0.0634 -0.235492,-0.0991 -0.716365,-0.40097 -1.068609,-0.67081 -0.352244,-0.26985 -0.78005,-0.55423 -0.950678,-0.63197 -0.17063,-0.0778 -0.40333,-0.10563 -0.51711,-0.062 -0.11378,0.0436 -0.206873,0.18073 -0.206873,0.30462 0,0.12388 0.0908,0.32557 0.201775,0.44821 0.18093,0.19992 0.180525,0.24058 -0.0039,0.39366 -0.159373,0.13228 -0.280687,0.13655 -0.538729,0.019 -0.183169,-0.0834 -0.954939,-0.15174 -1.715043,-0.15174 -1.382009,0 -1.382009,0 -1.789293,0.56224 -0.224006,0.30923 -0.457182,0.56224 -0.518169,0.56224 -0.06099,0 -0.294801,-0.23143 -0.519587,-0.51428 -0.224786,-0.28286 -0.408702,-0.62516 -0.408702,-0.76068 0,-0.13552 -0.06522,-0.24639 -0.144943,-0.24639 -0.07972,0 -0.329614,0.13149 -0.555322,0.29221 -0.296446,0.21109 -0.574082,0.28509 -1.000015,0.26656 -0.339516,-0.0148 -0.695824,-0.12176 -0.839966,-0.25221 -0.137681,-0.1246 -0.378695,-0.45494 -0.535588,-0.73409 -0.170865,-0.30402 -0.367311,-0.49178 -0.489868,-0.46823 -0.148814,0.0286 -0.240686,0.31604 -0.336902,1.05406 -0.07276,0.55811 -0.176575,1.05801 -0.2307,1.11092 -0.05412,0.0529 -0.214935,-0.009 -0.357356,-0.13818 -0.248506,-0.22489 -0.27327,-0.22309 -0.613965,0.0449 -0.20813,0.16371 -0.552887,0.2812 -0.833268,0.28394 -0.263039,0.003 -0.627081,0.0898 -0.808982,0.19375 -0.181901,0.10398 -0.405143,0.19118 -0.496093,0.19376 -0.09095,0.003 -0.165365,-0.1471 -0.165365,-0.33262 0,-0.18552 -0.09083,-0.51294 -0.201835,-0.72761 -0.114383,-0.22119 -0.309064,-0.3903 -0.449316,-0.3903 -0.136115,0 -0.43122,0.22324 -0.655787,0.49609 -0.224568,0.27286 -0.498625,0.60028 -0.609017,0.72761 -0.110391,0.12733 -0.276007,0.23151 -0.368035,0.23151 -0.09203,0 -0.389468,-0.11906 -0.660978,-0.26458 z m 9.042266,-1.80025 c 0.15002,-0.18076 0.138708,-0.24044 -0.07523,-0.39687 -0.138491,-0.10127 -0.32972,-0.18413 -0.424954,-0.18413 -0.09523,0 -0.173153,0.13891 -0.173153,0.30868 0,0.16978 0.03969,0.34838 0.08819,0.39687 0.04851,0.0485 0.16028,0.0882 0.248384,0.0882 0.0881,0 0.239647,-0.0957 0.336761,-0.21275 z m 74.176077,-0.46654 c 0.0226,-0.11894 -0.10961,-0.38683 -0.29393,-0.59531 -0.28272,-0.31979 -0.35585,-0.34802 -0.46776,-0.18061 -0.0729,0.10915 -0.13356,0.32048 -0.13467,0.46964 -0.001,0.14916 0.0717,0.34491 0.1618,0.43501 0.0901,0.0901 0.28296,0.14666 0.42859,0.12568 0.14563,-0.021 0.28331,-0.13547 0.30597,-0.25441 z m -23.28446,-0.75548 c 0.0379,-0.11385 -0.0257,-0.16152 -0.17652,-0.13229 -0.12968,0.0251 -0.26245,0.12581 -0.29505,0.22371 -0.0379,0.11385 0.0257,0.16153 0.17651,0.13229 0.12968,-0.0251 0.26246,-0.12581 0.29506,-0.22371 z m -61.353666,-1.87761 c 0.254181,-0.0756 1.116991,-0.19368 1.917356,-0.26248 0.800364,-0.0688 2.080286,-0.2521 2.84427,-0.40731 1.09442,-0.22235 2.045753,-0.29627 4.484972,-0.34854 1.84123,-0.0394 3.85175,-0.004 4.960937,0.0885 1.025766,0.0851 2.460341,0.24768 3.187945,0.36121 0.885114,0.1381 1.826389,0.18572 2.84427,0.14391 1.162779,-0.0478 1.755208,-0.1421 2.513542,-0.40013 0.545703,-0.18569 1.438672,-0.50286 1.984375,-0.70484 0.98777,-0.3656 1.0075,-0.36727 4.43177,-0.37532 3.439584,-0.008 3.439584,-0.008 4.230794,0.37404 0.79122,0.38212 0.79122,0.38212 4.43178,0.30936 3.427325,-0.0685 3.718045,-0.0939 4.963475,-0.43277 0.7276,-0.198 1.82893,-0.49784 2.44739,-0.66631 0.70397,-0.19176 1.50948,-0.30886 2.15399,-0.31316 0.6202,-0.004 1.21399,0.0702 1.49353,0.18702 0.25521,0.10664 0.71925,0.40303 1.03121,0.65866 0.31196,0.25562 0.78393,0.55533 1.04884,0.66602 0.2649,0.11069 0.72577,0.20124 1.02416,0.20124 0.29838,0 1.11885,-0.1424 1.82326,-0.31644 0.70441,-0.17405 1.53746,-0.35394 1.85122,-0.39976 0.31376,-0.0458 0.79631,-0.0225 1.07233,0.0518 0.27603,0.0743 0.77476,0.34352 1.10831,0.59819 0.33354,0.25469 0.75213,0.46306 0.93018,0.46306 0.17805,0 0.82714,-0.26779 1.44242,-0.59511 0.61528,-0.3273 1.85727,-0.84123 2.75998,-1.14206 1.20367,-0.40111 1.85295,-0.54633 2.43505,-0.54461 0.49648,0.001 1.27346,0.14887 2.07462,0.39359 1.04982,0.32064 1.46151,0.52957 2.28223,1.1582 0.99931,0.76541 1.00285,0.76681 1.73427,0.69133 0.4031,-0.0416 1.72759,-0.422 2.94329,-0.84531 2.21038,-0.76967 2.21038,-0.76967 3.86403,-0.75513 0.9095,0.008 2.18942,0.0907 2.84427,0.1837 0.65483,0.0931 1.95481,0.39904 2.88884,0.68 0.93402,0.28095 1.80958,0.51082 1.9457,0.51082 0.19113,0 0.31652,-0.21836 0.55073,-0.95911 0.27701,-0.87609 0.30326,-1.20534 0.30326,-3.80339 0,-1.56435 -0.0481,-7.27935 -0.10689,-12.7 -0.0588,-5.42065 -0.16251,-10.71893 -0.23047,-11.77396 -0.068,-1.05502 -0.27463,-2.66237 -0.45925,-3.57187 -0.20377,-1.00379 -0.36755,-2.36066 -0.41677,-3.45273 -0.051,-1.13257 -0.0206,-2.28433 0.0822,-3.10886 0.0898,-0.72037 0.30662,-2.00547 0.48186,-2.85577 0.18784,-0.91138 0.31863,-1.99965 0.31863,-2.65112 0,-0.6078 -0.0957,-1.45991 -0.21266,-1.89357 -0.11696,-0.43366 -0.26279,-0.99647 -0.32407,-1.2507 -0.0885,-0.3671 -0.0386,-0.65296 0.24265,-1.38906 0.35408,-0.92684 0.35408,-0.92684 0.39474,-11.44402 0.0253,-6.53941 -0.009,-10.83893 -0.0911,-11.36785 -0.077,-0.49693 -0.35753,-1.3212 -0.67469,-1.98218 -0.30893,-0.64382 -0.54491,-1.33203 -0.54751,-1.59673 -0.003,-0.25587 0.0907,-0.96293 0.20716,-1.57124 0.11644,-0.60831 0.21105,-1.50128 0.21024,-1.98438 -7.9e-4,-0.48309 -0.11274,-1.51537 -0.24873,-2.29394 -0.17586,-1.00688 -0.21466,-1.5798 -0.13438,-1.98437 0.0621,-0.31284 0.20374,-0.89621 0.31481,-1.2964 0.11108,-0.40018 0.27344,-1.57511 0.3608,-2.61095 0.12248,-1.45217 0.12306,-2.04277 0.003,-2.57969 -0.086,-0.38298 -0.21765,-2.24415 -0.2926,-4.13592 -0.075,-1.89177 -0.19094,-4.51524 -0.25775,-5.82993 -0.0917,-1.80339 -0.17797,-2.50879 -0.3515,-2.87269 -0.22495,-0.47174 -0.22213,-0.508 0.12846,-1.65092 0.19716,-0.64272 0.39388,-1.59088 0.43715,-2.10701 0.0731,-0.87142 0.0479,-1.00161 -0.35223,-1.82294 -0.34013,-0.69819 -0.41617,-0.9943 -0.36099,-1.40574 0.0385,-0.28668 0.25403,-0.80815 0.47906,-1.15883 0.30554,-0.47614 0.40915,-0.79161 0.40915,-1.24576 0,-0.33448 0.0912,-1.04167 0.20265,-1.57152 0.11146,-0.52985 0.16372,-1.14393 0.11615,-1.36463 -0.0476,-0.2207 -0.20181,-0.62902 -0.34274,-0.90738 -0.16889,-0.33359 -0.4154,-0.5726 -0.72318,-0.7012 -0.25681,-0.1073 -1.49678,-0.43022 -2.75548,-0.71759 -1.25868,-0.28738 -2.58789,-0.5225 -2.95379,-0.5225 -0.57082,0 -0.70437,-0.0517 -0.94062,-0.3638 -0.27533,-0.36381 -0.27533,-0.36381 -0.6,0 -0.17856,0.20009 -0.38552,0.3638 -0.4599,0.3638 -0.0744,0 -0.23364,-0.19348 -0.3539,-0.42995 -0.12026,-0.23647 -0.23811,-0.45201 -0.26188,-0.47897 -0.0238,-0.027 -0.27778,0.13675 -0.56445,0.3638 -0.28668,0.22706 -0.61685,0.41283 -0.73371,0.41283 -0.11686,0 -0.21247,-0.0804 -0.21247,-0.17859 0,-0.0982 -0.17673,-0.42255 -0.39272,-0.72073 -0.216,-0.29818 -0.51591,-0.60806 -0.66646,-0.68864 -0.15055,-0.0806 -0.37566,-0.11358 -0.50024,-0.0734 -0.12459,0.0402 -0.32793,0.25189 -0.45188,0.47035 -0.12394,0.21847 -0.31628,0.39722 -0.42742,0.39722 -0.11114,0 -0.23803,-0.14328 -0.28199,-0.31841 -0.044,-0.17512 -0.0105,-0.44811 0.0743,-0.60664 0.0848,-0.15853 0.11582,-0.32667 0.0688,-0.37364 -0.047,-0.047 -0.26015,0.0177 -0.47374,0.14362 -0.21358,0.12597 -0.56308,0.33209 -0.77667,0.45805 -0.21358,0.12597 -0.43374,0.18362 -0.48924,0.12813 -0.0555,-0.0555 -0.0341,-0.35134 0.0476,-0.65743 0.10375,-0.3887 0.10677,-0.60686 0.01,-0.72343 -0.08,-0.0964 -0.43835,-0.16692 -0.84827,-0.16692 -0.68417,0 -0.72178,-0.0191 -1.04379,-0.52916 -0.18373,-0.29105 -0.34819,-0.53175 -0.36546,-0.5349 -0.0173,-0.003 -0.82078,-0.0566 -1.78555,-0.11887 -1.43025,-0.0923 -1.868,-0.17058 -2.3708,-0.42422 -0.33917,-0.17109 -0.62137,-0.36981 -0.62712,-0.44159 -0.006,-0.0718 0.15422,-0.20943 0.35548,-0.30589 0.20127,-0.0965 0.47999,-0.13919 0.61939,-0.0949 0.17576,0.0558 0.24608,0.18852 0.22938,0.433 -0.0165,0.24171 0.0487,0.36764 0.20744,0.40052 0.18951,0.0393 0.23151,-0.0469 0.23151,-0.47471 0,-0.29061 -0.0836,-0.59203 -0.18823,-0.67888 -0.12695,-0.10536 -0.44349,-0.12734 -0.97234,-0.0675 -0.6227,0.0704 -0.79929,0.0491 -0.85786,-0.1035 -0.0406,-0.10571 -0.0206,-0.2761 0.0443,-0.37864 0.0649,-0.10254 0.11894,-0.32039 0.12005,-0.4841 0.001,-0.16371 -0.0502,-0.29765 -0.11407,-0.29765 -0.0639,0 -0.17813,0.0747 -0.25395,0.1661 -0.0758,0.0914 -0.179,0.33005 -0.22929,0.53042 -0.0503,0.20037 -0.15008,0.40056 -0.22176,0.44486 -0.0717,0.0443 -0.22026,-0.009 -0.33017,-0.11928 -0.11901,-0.11902 -0.22821,-0.55338 -0.27,-1.07399 -0.0386,-0.48079 -0.11232,-0.87415 -0.16384,-0.87415 -0.0515,0 -0.20143,0.11906 -0.33312,0.26458 -0.1317,0.14552 -0.3344,0.26326 -0.45046,0.26164 -0.11605,-0.002 -0.35983,-0.11936 -0.54173,-0.26164 -0.1819,-0.14229 -0.41534,-0.26002 -0.51875,-0.26164 -0.10341,-0.002 -0.28835,0.0879 -0.41098,0.19883 -0.17852,0.16156 -0.24928,0.16815 -0.35503,0.0331 -0.0726,-0.0928 -0.20023,-0.37106 -0.28355,-0.618387 -0.0833,-0.24733 -0.15148,-0.50795 -0.15148,-0.57915 0,-0.0766 0.21275,-0.0954 0.52118,-0.0461 0.28665,0.0458 0.55388,0.0304 0.59385,-0.0343 0.04,-0.0647 -0.001,-0.17444 -0.0912,-0.24393 -0.0901,-0.0695 -0.4318,-0.22901 -0.75922,-0.3545 -0.32742,-0.12549 -0.69113,-0.35158 -0.80824,-0.50242 -0.21037,-0.27096 -0.21798,-0.27127 -0.63398,-0.0255 -0.36692,0.21674 -0.43708,0.22337 -0.54572,0.0515 -0.0686,-0.10845 -0.12559,-0.30284 -0.1267,-0.43198 -10e-4,-0.12913 0.14102,-0.28917 0.31585,-0.35564 0.17483,-0.0665 0.35442,-0.17998 0.39909,-0.25225 0.0447,-0.0723 -0.0537,-0.2259 -0.2186,-0.3414 -0.27494,-0.19257 -0.31314,-0.19177 -0.46046,0.01 -0.0884,0.12084 -0.1826,0.28554 -0.20942,0.366 -0.0317,0.0951 -0.22478,0.0539 -0.55211,-0.11798 -0.27684,-0.14535 -0.61401,-0.44287 -0.74926,-0.66115 -0.13526,-0.21828 -0.24614,-0.50742 -0.24641,-0.64254 -4e-4,-0.18445 -0.0582,-0.22032 -0.23201,-0.14395 -0.12733,0.0559 -0.45607,0.12822 -0.73053,0.16062 -0.31109,0.0367 -0.5495,0.15322 -0.63304,0.30932 -0.0737,0.13772 -0.22122,0.2504 -0.3278,0.2504 -0.10658,0 -0.19378,-0.10868 -0.19378,-0.24152 0,-0.13284 0.14882,-0.38134 0.33072,-0.55223 0.18191,-0.17088 0.33073,-0.35985 0.33073,-0.41993 0,-0.0601 -0.14757,-0.10923 -0.32795,-0.10923 -0.18037,0 -0.71686,-0.12767 -1.19219,-0.28371 -0.77932,-0.25584 -0.95435,-0.26884 -1.78113,-0.1323 -0.59901,0.0989 -3.17831,0.15247 -7.43983,0.15445 -3.587635,0.002 -9.707885,0.0591 -13.600566,0.12754 -4.671121,0.0822 -7.999714,0.0791 -9.789583,-0.009 -1.491588,-0.0735 -4.855104,-0.16784 -7.474479,-0.20965 -2.884976,-0.046 -5.805568,-0.0176 -7.408333,0.0721 -1.455208,0.0815 -4.26494,0.18741 -6.24385,0.23538 -1.978909,0.048 -3.663126,0.12746 -3.742705,0.17665 -0.100964,0.0624 -0.106239,0.26594 -0.01745,0.67354 0.07626,0.3501 0.123069,5.009867 0.116838,11.630487 -0.0076,8.12678 0.03196,11.27362 0.149857,11.90624 0.08814,0.47295 0.241331,1.51474 0.340426,2.31511 0.09909,0.80036 0.280803,1.89345 0.403795,2.42908 0.222268,0.96799 0.221846,0.97629 -0.06955,1.37043 -0.246777,0.33378 -0.268029,0.44136 -0.134279,0.67976 0.08739,0.15578 0.495812,0.55485 0.907599,0.88684 0.411787,0.33198 1.116587,0.85857 1.566224,1.17019 0.449636,0.31162 0.848872,0.64829 0.887191,0.74814 0.03832,0.0999 0.01551,0.21504 -0.0507,0.25595 -0.0662,0.0409 -0.590815,-0.27442 -1.165807,-0.70075 -0.574993,-0.42633 -1.664204,-1.16179 -2.420471,-1.63435 -0.756265,-0.47257 -1.62737,-0.99934 -1.935788,-1.17062 -0.308418,-0.17128 -0.599255,-0.27292 -0.646306,-0.22587 -0.04705,0.047 0.0079,0.2282 0.122174,0.40256 0.114245,0.17436 0.729049,0.78642 1.366231,1.36012 0.637181,0.57371 1.772162,1.59867 2.52218,2.27769 0.750017,0.67903 1.363668,1.29328 1.363668,1.365 0,0.0717 -0.175974,0.005 -0.391054,-0.14805 -0.215079,-0.15315 -1.271759,-1.07011 -2.348177,-2.0377 -1.076418,-0.96759 -2.171578,-2.02208 -2.43369,-2.34331 -0.262112,-0.32124 -0.575847,-0.7769 -0.697189,-1.01259 -0.121342,-0.23568 -0.612329,-0.86076 -1.091082,-1.38906 -0.478753,-0.5283 -1.109413,-1.30957 -1.401467,-1.73615 -0.292054,-0.42657 -0.695682,-1.14095 -0.89695,-1.5875 -0.201268,-0.44654 -0.410019,-1.02025 -0.463891,-1.27492 -0.05387,-0.25466 -0.182611,-0.62867 -0.286088,-0.83115 -0.1057,-0.20682 -0.251358,-0.32905 -0.332415,-0.27895 -0.09333,0.0577 -0.118027,0.39789 -0.06994,0.96344 0.04089,0.48085 0.225751,1.35196 0.410813,1.9358 0.185062,0.58384 0.779746,1.95306 1.321521,3.04271 0.541774,1.08964 1.353695,2.54672 1.804268,3.23795 0.678753,1.04127 1.439273,1.86922 4.435394,4.82864 1.988895,1.96453 4.158106,4.19695 4.820468,4.96094 0.696421,0.80327 1.39683,1.77314 1.660845,2.2998 0.251102,0.50091 0.45655,1.00444 0.45655,1.11895 0,0.11452 -0.294156,-0.26555 -0.653678,-0.8446 -0.359523,-0.57904 -0.910187,-1.35545 -1.223698,-1.72536 -0.313511,-0.36992 -1.099011,-1.27553 -1.745557,-2.01248 -0.646546,-0.73694 -2.088231,-2.17584 -3.203744,-3.19755 -1.115514,-1.0217 -2.480803,-2.37534 -3.033976,-3.00807 -0.553174,-0.63273 -1.322448,-1.62962 -1.709499,-2.2153 -0.387052,-0.58568 -1.260594,-2.06202 -1.941205,-3.28076 -0.680612,-1.21873 -1.287234,-2.21588 -1.348049,-2.21588 -0.06082,0 -0.07193,0.19348 -0.0247,0.42995 0.04723,0.23647 0.238014,0.90619 0.423961,1.48828 0.185947,0.58208 0.568358,1.50482 0.849802,2.05052 0.281444,0.5457 0.97827,1.61726 1.548501,2.38125 0.570231,0.76398 2.10951,2.49039 3.420619,3.83646 1.311109,1.34606 2.966646,3.10224 3.678972,3.9026 0.712326,0.80037 1.666179,1.93146 2.119674,2.51354 0.453495,0.58209 1.157354,1.57014 1.56413,2.19567 0.406775,0.62553 0.828462,1.21109 0.937078,1.30123 0.108617,0.0901 0.260475,0.12497 0.337463,0.0774 0.07699,-0.0476 0.263836,-0.32929 0.415219,-0.62603 0.16688,-0.32711 0.273346,-0.78416 0.270428,-1.16093 -0.0027,-0.35181 -0.153443,-0.98913 -0.34739,-1.46896 -0.188418,-0.46614 -0.578898,-1.17496 -0.867736,-1.57514 -0.288837,-0.40018 -0.668504,-0.94105 -0.843703,-1.20193 -0.175198,-0.26088 -1.083003,-1.18176 -2.017343,-2.0464 -0.93434,-0.86464 -2.537033,-2.40736 -3.561541,-3.42828 -1.024507,-1.02091 -2.313781,-2.45151 -2.865053,-3.17912 -0.551272,-0.7276 -1.513858,-1.97706 -2.139082,-2.77657 -0.625223,-0.79951 -1.134993,-1.51388 -1.132821,-1.5875 0.0022,-0.0736 0.242157,0.13405 0.533302,0.46147 0.291144,0.32742 1.164352,1.39898 1.940461,2.38125 0.776109,0.98226 1.801162,2.25556 2.277896,2.82954 0.476734,0.57399 1.968116,2.05175 3.314184,3.28392 1.346068,1.23217 2.846442,2.68159 3.334164,3.22093 0.487722,0.53934 1.131539,1.34106 1.430705,1.7816 0.299166,0.44054 0.688327,1.11111 0.864804,1.49015 0.176477,0.37904 0.321449,0.88265 0.322159,1.11912 6.62e-4,0.23647 0.0559,0.42995 0.122643,0.42995 0.06674,0 0.223661,-0.2679 0.348708,-0.59533 0.159227,-0.41693 0.202412,-0.77733 0.144112,-1.20268 -0.04579,-0.33405 -0.292347,-1.00527 -0.547913,-1.49162 -0.255567,-0.48634 -0.836392,-1.30436 -1.290722,-1.81781 -0.454331,-0.51346 -1.229449,-1.30902 -1.722487,-1.76793 -0.493036,-0.4589 -1.083989,-1.07118 -1.313228,-1.36061 -0.416798,-0.52625 -0.416798,-0.52625 0.03654,-0.29642 0.249333,0.12641 1.111256,0.89241 1.915384,1.70221 0.80413,0.80981 1.740151,1.86465 2.080051,2.3441 0.3399,0.47946 0.694007,1.10372 0.786906,1.38726 0.09725,0.29681 0.267126,0.53444 0.400418,0.5601 0.197164,0.038 0.231373,-0.0599 0.230583,-0.65965 -5.29e-4,-0.38732 -0.118943,-1.1965 -0.263186,-1.79817 -0.144243,-0.60166 -0.386179,-1.33684 -0.537637,-1.63372 -0.151458,-0.29688 -0.520077,-0.80525 -0.819153,-1.12971 -0.299076,-0.32446 -1.024104,-0.96695 -1.611175,-1.42775 -0.58707,-0.4608 -1.245994,-1.03111 -1.464275,-1.26735 -0.396875,-0.42953 -0.396875,-0.42953 0.03966,-0.34703 0.240092,0.0454 0.835404,0.31711 1.322916,0.60385 0.487512,0.28675 1.243573,0.81081 1.680136,1.1646 0.436562,0.35379 1.10129,1.07214 1.477171,1.59633 0.384703,0.5365 0.814959,1.34383 0.984357,1.84703 0.220103,0.65383 0.300564,1.19598 0.299558,2.01842 -7.94e-4,0.68471 -0.09254,1.43151 -0.234465,1.90954 -0.128198,0.43179 -0.473257,1.26523 -0.766799,1.85209 -0.293542,0.58686 -0.784553,1.4242 -1.091138,1.86077 -0.306583,0.43656 -0.593595,0.89304 -0.637805,1.01439 -0.04421,0.12135 0.09231,0.9917 0.303377,1.9341 0.211066,0.9424 0.451548,2.27101 0.534404,2.95246 0.08286,0.68145 0.112559,1.59704 0.066,2.03465 -0.04655,0.43761 -0.169219,1.30166 -0.272591,1.92013 -0.103371,0.61846 -0.339275,2.2018 -0.524229,3.51854 -0.220201,1.56766 -0.335907,2.98328 -0.335197,4.10104 6.62e-4,0.93884 0.06234,2.24276 0.137209,2.8976 0.07487,0.65485 0.250157,1.73729 0.389532,2.40543 0.139374,0.66814 0.408361,1.68017 0.597749,2.24896 0.189387,0.56878 0.53032,1.34359 0.757629,1.72178 0.268847,0.44731 0.708681,0.90013 1.258502,1.29566 0.464869,0.33442 0.819889,0.67983 0.788934,0.76758 -0.0371,0.10518 -0.313583,0.14761 -0.811332,0.12452 -0.415277,-0.0193 -1.396846,-0.24251 -2.181266,-0.49609 -0.784419,-0.25359 -1.52587,-0.46107 -1.64767,-0.46107 -0.174674,0 -0.20291,0.0768 -0.133667,0.36381 0.04828,0.20009 0.263786,0.86981 0.478901,1.48828 0.215113,0.61846 0.623227,1.67211 0.906921,2.34143 0.283693,0.66932 0.515807,1.3133 0.515807,1.43105 0,0.16051 -0.0745,0.19156 -0.297657,0.12406 -0.16371,-0.0495 -0.586631,-0.24496 -0.939823,-0.43431 -0.353193,-0.18936 -0.903857,-0.57463 -1.223698,-0.85617 -0.473727,-0.41699 -0.58153,-0.59563 -0.58153,-0.96366 0,-0.24848 -0.05521,-0.45178 -0.12269,-0.45178 -0.06748,0 -0.239758,0.14883 -0.382842,0.33073 -0.143083,0.1819 -0.333439,0.33073 -0.423013,0.33073 -0.110402,0 -0.137294,-0.12784 -0.08349,-0.39687 0.04366,-0.21829 0.04718,-0.39688 0.0078,-0.39688 -0.03934,0 -0.193076,0.0651 -0.341625,0.14455 -0.195326,0.10453 -0.310101,0.10453 -0.414636,0 -0.0795,-0.0795 -0.281469,-0.14455 -0.448818,-0.14455 -0.167349,0 -0.433064,0.12879 -0.590477,0.28621 -0.258984,0.25898 -0.316769,0.26842 -0.607524,0.0992 -0.176725,-0.10285 -0.417448,-0.3483 -0.53494,-0.54545 -0.117492,-0.19715 -0.177061,-0.39501 -0.132374,-0.4397 0.04469,-0.0447 0.262418,0.0124 0.483847,0.12694 0.22143,0.11451 0.514241,0.2082 0.650692,0.2082 0.136451,0 0.38791,-0.14883 0.558797,-0.33073 0.293648,-0.31258 0.296366,-0.33073 0.04952,-0.33073 -0.143652,0 -0.333743,0.0726 -0.422426,0.16124 -0.126793,0.12679 -0.287074,0.0925 -0.750236,-0.16051 -0.588996,-0.32175 -0.588996,-0.32175 -1.207762,-0.0211 -0.618765,0.30062 -0.618765,0.30062 -0.534968,1.97952 0.04609,0.92339 0.19904,2.25198 0.339893,2.95242 0.140853,0.70044 0.386261,1.71247 0.545353,2.24896 0.159091,0.53649 0.550752,1.54727 0.870359,2.24617 0.319606,0.6989 0.581102,1.33886 0.581102,1.42213 0,0.0833 -0.119062,0.27047 -0.264583,0.41599 -0.153894,0.15389 -0.440972,0.26458 -0.686209,0.26458 -0.421626,0 -0.421626,0 -0.06615,0.37104 0.195514,0.20408 0.35548,0.4422 0.35548,0.52917 0,0.087 -0.168672,0.15813 -0.374827,0.15813 -0.206154,0 -0.411465,0.0366 -0.456245,0.0814 -0.04478,0.0448 0.12821,0.27912 0.384424,0.52076 0.356617,0.33634 0.455838,0.52635 0.423173,0.81042 -0.02536,0.22052 -0.1333,0.38825 -0.266048,0.41341 -0.122857,0.0233 -0.331216,-0.0714 -0.46302,-0.2105 -0.131805,-0.13906 -0.343242,-0.38084 -0.46986,-0.5373 -0.126619,-0.15645 -0.320095,-0.28446 -0.429948,-0.28446 -0.109853,0 -0.199732,0.0865 -0.199732,0.1922 0,0.10571 0.238124,0.38357 0.529166,0.61745 0.291042,0.23389 0.529167,0.47087 0.529167,0.52662 0,0.0557 -0.161372,0.1202 -0.358604,0.14322 -0.299425,0.035 -0.377643,0.12919 -0.473969,0.57103 -0.06345,0.29104 -0.07638,1.30307 -0.02873,2.24896 0.04765,0.94588 0.180399,2.16627 0.295004,2.71198 0.148967,0.70932 0.225463,2.02936 0.26832,4.6302 0.03297,2.00091 -0.009,4.99939 -0.09323,6.66329 -0.08425,1.6639 -0.238809,3.95585 -0.343464,5.09323 -0.104654,1.13738 -0.190035,2.8121 -0.189735,3.72161 3.04e-4,0.9095 0.05671,2.15966 0.12536,2.77812 0.06865,0.61847 0.137654,1.51144 0.153347,1.98438 0.01569,0.47294 -0.03804,1.84216 -0.119406,3.04271 -0.08137,1.20054 -0.187293,3.20619 -0.235394,4.45698 -0.08745,2.27419 -0.08745,2.27419 0.555746,2.32434 0.35376,0.0276 1.20914,0.0609 1.900844,0.074 0.691705,0.0131 1.465611,-0.038 1.719792,-0.11354 z m -1.300417,-53.26441 c 0.02353,-0.12131 0.117187,-0.24533 0.208137,-0.27561 0.09699,-0.0323 0.165365,0.0589 0.165365,0.22055 0,0.16249 -0.08542,0.2756 -0.208138,0.2756 -0.123195,0 -0.190681,-0.09 -0.165364,-0.22054 z m 75.382873,-66.5206 c 0,-0.10914 0.0893,-0.19843 0.19844,-0.19843 0.10914,0 0.19844,0.0893 0.19844,0.19843 0,0.10914 -0.0893,0.19844 -0.19844,0.19844 -0.10914,0 -0.19844,-0.0893 -0.19844,-0.19844 z m -4.71037,-0.51799 c -0.0395,-0.10299 -0.0525,-0.356 -0.0289,-0.56224 0.0365,-0.31848 0.10247,-0.37498 0.438,-0.37498 0.2658,0 0.40916,0.0732 0.43814,0.22367 0.0237,0.12302 -0.0567,0.37602 -0.17877,0.56224 -0.12201,0.18622 -0.30616,0.33857 -0.40921,0.33857 -0.10306,0 -0.21971,-0.0843 -0.25924,-0.18726 z m -2.0365,-1.47508 c 0,-0.0412 0.0616,-0.18999 0.13695,-0.33073 0.0785,-0.14673 0.27603,-0.25588 0.46302,-0.25588 0.17934,0 0.32607,0.0503 0.32607,0.11178 0,0.0615 -0.10887,0.21032 -0.24193,0.33073 -0.13306,0.12042 -0.34142,0.21894 -0.46302,0.21894 -0.1216,0 -0.22109,-0.0337 -0.22109,-0.0748 z m -0.92604,-0.52047 c -0.13394,-0.16139 -0.12764,-0.19844 0.0337,-0.19844 0.10914,0 0.27254,0.0893 0.36312,0.19844 0.13394,0.16139 0.12764,0.19844 -0.0337,0.19844 -0.10914,0 -0.27254,-0.0893 -0.36312,-0.19844 z m -5.75469,-3.37344 c 0.045,-0.0728 0.17106,-0.13229 0.2802,-0.13229 0.10914,0 0.16164,0.0595 0.11668,0.13229 -0.045,0.0728 -0.17106,0.1323 -0.2802,0.1323 -0.10914,0 -0.16165,-0.0595 -0.11668,-0.1323 z m -2.18281,-0.92604 c 0,-0.0728 0.0893,-0.13229 0.19844,-0.13229 0.10914,0 0.19843,0.0595 0.19843,0.13229 0,0.0728 -0.0893,0.13229 -0.19843,0.13229 -0.10914,0 -0.19844,-0.0595 -0.19844,-0.13229 z m -1.71979,-2.127687 c 0,-0.16166 0.0684,-0.25284 0.16536,-0.22055 0.091,0.0303 0.18461,0.15431 0.20814,0.27561 0.0253,0.13054 -0.0422,0.22055 -0.16537,0.22055 -0.12271,0 -0.20813,-0.11311 -0.20813,-0.27561 z m -1.53336,-0.83245 c -0.0478,-0.12445 -0.0487,-0.26438 -0.002,-0.31096 0.0466,-0.0466 0.15513,-0.0143 0.24124,0.0719 0.11931,0.11931 0.11982,0.19327 0.002,0.31096 -0.11769,0.11769 -0.17507,0.1006 -0.24124,-0.0719 z m -4.02289,-2.66641 c 0,-0.10685 0.0893,-0.19428 0.19844,-0.19428 0.10914,0 0.19843,0.0532 0.19843,0.11814 0,0.065 -0.0893,0.1524 -0.19843,0.19428 -0.12088,0.0464 -0.19844,2.1e-4 -0.19844,-0.11814 z M 150.34912,226.4554 c -0.0795,-0.12596 -0.19751,-0.21729 -0.26234,-0.20294 -0.0648,0.0143 -0.1378,0.122 -0.16214,0.23924 -0.0243,0.11723 -0.007,0.30953 0.0379,0.42735 0.0751,0.19561 0.10166,0.19472 0.3066,-0.0102 0.17326,-0.17326 0.19148,-0.2766 0.0799,-0.45344 z m 0.13968,-12.84789 c 0.0399,-0.0645 -0.003,-0.18018 -0.0958,-0.25702 -0.0957,-0.0794 -0.2451,-0.0923 -0.34622,-0.0298 -0.0978,0.0605 -0.13697,0.17612 -0.087,0.25702 0.05,0.0809 0.17317,0.14708 0.27373,0.14708 0.10055,0 0.21544,-0.0528 0.25531,-0.1173 z m -0.88097,-0.51928 c 0.0288,-0.0864 -0.0419,-0.1932 -0.15709,-0.2374 -0.11519,-0.0442 -0.31362,-0.04 -0.44095,0.009 -0.21535,0.0835 -0.21341,0.10307 0.0277,0.28052 0.14258,0.10492 0.31745,0.17137 0.38861,0.14765 0.0712,-0.0237 0.15293,-0.11379 0.18171,-0.20015 z m 0.51167,-2.47227 c 0.0419,-0.10914 0.0423,-0.28673 7.9e-4,-0.39465 -0.0428,-0.11164 -0.16297,-0.16256 -0.27873,-0.11814 -0.1119,0.0429 -0.20345,0.18084 -0.20345,0.30645 0,0.12561 0.0397,0.26807 0.0882,0.31658 0.0485,0.0485 0.13967,0.0882 0.20259,0.0882 0.0629,0 0.14866,-0.0893 0.19054,-0.19843 z m -0.0415,-2.79903 c 0.0479,-0.0479 0.0207,-0.16694 -0.0603,-0.26458 -0.081,-0.0976 -0.28888,-0.17754 -0.46187,-0.17754 -0.1842,0 -0.31453,0.0782 -0.31453,0.18874 0,0.1038 0.10418,0.21596 0.23151,0.24923 0.12733,0.0333 0.296,0.0674 0.37482,0.0759 0.0788,0.008 0.18249,-0.0238 0.23037,-0.0717 z m 1.49749,-1.92905 c 0.33467,-0.30849 1.098,-1.21634 1.69629,-2.01745 0.59828,-0.80111 1.38707,-1.90395 1.75287,-2.45076 0.3658,-0.54681 0.9331,-1.52908 1.26066,-2.18281 0.32757,-0.65374 0.80936,-1.76089 1.07065,-2.46035 0.26128,-0.69945 0.53747,-1.5502 0.61374,-1.89055 0.0992,-0.44277 0.097,-0.69658 -0.008,-0.8922 -0.0906,-0.16925 -0.19336,-0.22636 -0.2698,-0.14992 -0.0679,0.0679 -0.26228,0.5059 -0.43193,0.97331 -0.16965,0.46742 -0.50366,1.2368 -0.74225,1.70974 -0.23858,0.47295 -0.91594,1.66357 -1.50523,2.64584 -0.58929,0.98226 -1.74003,2.71738 -2.5572,3.85581 -0.81717,1.13843 -1.58549,2.279 -1.70737,2.53459 -0.12188,0.25559 -0.18526,0.55942 -0.14084,0.67518 0.0444,0.11575 0.14349,0.21046 0.22016,0.21046 0.0767,0 0.41322,-0.2524 0.74789,-0.56089 z m 1.10539,-3.77255 c 0.61847,-0.88971 1.44074,-2.13901 1.82728,-2.77622 0.38654,-0.63721 0.96698,-1.67831 1.28987,-2.31354 0.32289,-0.63523 0.81951,-1.73838 1.10359,-2.45143 0.28408,-0.71306 0.65178,-1.74113 0.81712,-2.28462 0.19834,-0.65196 0.3039,-1.34821 0.31028,-2.04648 0.005,-0.58208 -0.0357,-1.16922 -0.0911,-1.30474 -0.0804,-0.19666 -0.13903,-0.21467 -0.2902,-0.0892 -0.10418,0.0865 -0.31269,0.52477 -0.46336,0.97401 -0.15067,0.44925 -0.63071,1.47166 -1.06676,2.27202 -0.43606,0.80037 -0.94811,1.78263 -1.1379,2.18282 -0.18979,0.40018 -0.49746,1.02526 -0.68372,1.38906 -0.18625,0.3638 -0.7682,1.35016 -1.29322,2.19191 -0.52502,0.84176 -1.10987,1.83693 -1.29968,2.21149 -0.28168,0.55587 -0.34612,0.87026 -0.35065,1.71069 -0.004,0.73243 -0.0749,1.15977 -0.24567,1.48042 -0.13207,0.24791 -0.44211,0.5458 -0.68899,0.66197 -0.4131,0.19438 -0.45159,0.26385 -0.48315,0.87215 -0.0343,0.66095 -0.0343,0.66095 0.79375,-0.20085 0.45542,-0.474 1.33406,-1.58975 1.95252,-2.47945 z m -1.16786,-2.53475 c 0.24214,-0.285 1.34588,-2.20488 2.45275,-4.2664 1.10687,-2.06153 2.30394,-4.3733 2.66016,-5.13729 0.35621,-0.76398 0.80493,-1.84554 0.99714,-2.40347 0.30915,-0.89734 0.34948,-1.21668 0.34948,-2.7671 0,-0.96398 -0.0351,-1.71755 -0.0781,-1.67461 -0.043,0.0429 -0.42133,0.93096 -0.84086,1.97335 -0.41952,1.0424 -1.16371,2.69402 -1.65375,3.67027 -0.49003,0.97625 -1.31115,2.52406 -1.8247,3.43958 -0.51355,0.91553 -1.19274,2.19605 -1.50931,2.84561 -0.31658,0.64956 -0.57559,1.27031 -0.57559,1.37943 0,0.10912 -0.19348,0.36508 -0.42995,0.5688 -0.42995,0.3704 -0.42995,0.3704 -0.12437,0.6115 0.22734,0.17936 0.30751,0.38022 0.31308,0.78446 0.004,0.29885 -0.0327,0.60844 -0.0819,0.68798 -0.0491,0.0795 -0.26094,0.14462 -0.47063,0.14462 -0.2097,0 -0.41982,0.0624 -0.46694,0.13863 -0.0471,0.0762 -0.0525,0.22507 -0.012,0.33073 0.0414,0.10794 0.2449,0.1921 0.46444,0.1921 0.29133,0 0.5027,-0.13181 0.83097,-0.51819 z m -0.76821,-2.931 c 0.19171,-0.1508 0.34857,-0.33864 0.34857,-0.41743 0,-0.0788 0.64856,-1.30974 1.44124,-2.73545 0.79268,-1.42571 1.85671,-3.42564 2.36452,-4.44429 0.5078,-1.01864 1.11877,-2.29856 1.35772,-2.84427 0.23894,-0.5457 0.66202,-1.66593 0.94018,-2.48941 0.27816,-0.82347 0.59913,-1.9956 0.71327,-2.60472 0.11414,-0.60913 0.21949,-1.55454 0.2341,-2.10092 0.0166,-0.61941 -0.0321,-1.05212 -0.12916,-1.14934 -0.11949,-0.11965 -0.19043,-0.0212 -0.30485,0.42314 -0.082,0.31849 -0.30339,1.05532 -0.49193,1.6374 -0.18854,0.58208 -0.80648,2.22077 -1.3732,3.64152 -0.56673,1.42075 -1.36101,3.31399 -1.76508,4.20719 -0.40408,0.89321 -0.90607,1.8739 -1.11555,2.17932 -0.20948,0.30541 -0.57573,0.94226 -0.81389,1.4152 -0.23816,0.47294 -0.56589,1.03849 -0.72828,1.25677 -0.1624,0.21828 -0.3278,0.5457 -0.36756,0.7276 -0.0397,0.1819 -0.16381,0.56886 -0.27568,0.8599 -0.11187,0.29104 -0.20863,0.79706 -0.21501,1.12448 -0.006,0.32742 -0.0913,0.81855 -0.18866,1.0914 -0.0974,0.27286 -0.13255,0.4961 -0.0782,0.4961 0.0544,0 0.25572,-0.12338 0.44743,-0.27419 z m -1.43737,-3.10106 c 0,-0.29928 -0.0607,-0.39506 -0.25016,-0.39506 -0.13759,0 -0.31273,0.0992 -0.3892,0.22042 -0.10129,0.16057 -0.0906,0.27885 0.0396,0.43562 0.0982,0.11836 0.27337,0.19695 0.3892,0.17464 0.13654,-0.0263 0.2106,-0.17949 0.2106,-0.43562 z m 1.44831,-0.89116 c 0.028,-0.091 0.0882,-0.33477 0.13384,-0.54183 0.0456,-0.20705 0.26319,-0.54113 0.48355,-0.7424 0.40065,-0.36594 0.40065,-0.36594 -0.23706,-0.43782 -0.35074,-0.0395 -0.68242,-0.0442 -0.73708,-0.0105 -0.0547,0.0338 -0.0986,0.34067 -0.0976,0.68199 0.001,0.34132 0.0377,0.75452 0.0816,0.91823 0.0439,0.16371 0.13423,0.29766 0.20079,0.29766 0.0666,0 0.14394,-0.0744 0.17195,-0.16537 z m 1.83715,-2.83942 c 0.27377,-0.4157 0.76225,-1.31056 1.08552,-1.98856 0.32327,-0.67802 1.11681,-2.55562 1.76342,-4.17247 0.64661,-1.61684 1.32497,-3.41577 1.50746,-3.99762 0.1825,-0.58186 0.37085,-1.32581 0.41856,-1.65323 0.0867,-0.59531 0.0867,-0.59531 -0.37982,0.19844 -0.25662,0.43656 -0.64071,1.27 -0.85354,1.85208 -0.21284,0.58208 -0.56271,1.44735 -0.7775,1.92281 -0.21479,0.47547 -0.82099,1.63633 -1.34711,2.57969 -0.52612,0.94337 -1.33803,2.2908 -1.80425,2.9943 -0.46622,0.70349 -0.84767,1.34122 -0.84767,1.41717 0,0.076 0.12333,0.46774 0.27408,0.87065 0.15075,0.40291 0.31662,0.73257 0.3686,0.73257 0.052,0 0.31849,-0.34012 0.59225,-0.75583 z m -2.45327,0.21024 c 0.0224,-0.11818 -0.0591,-0.25315 -0.181,-0.29994 -0.12194,-0.0468 -0.30345,-0.0172 -0.40337,0.0657 -0.0999,0.0829 -0.18167,0.23674 -0.18167,0.3418 0,0.13024 0.11542,0.17771 0.36267,0.14917 0.20656,-0.0238 0.38019,-0.13435 0.40337,-0.25672 z m -0.66407,-2.52192 c -0.0288,-0.0864 -0.12305,-0.18067 -0.20946,-0.20947 -0.0864,-0.0288 -0.15709,0.0419 -0.15709,0.1571 0,0.1152 0.0942,0.20946 0.20946,0.20946 0.1152,0 0.1859,-0.0707 0.15709,-0.15709 z m 3.82425,-2.37055 c 0.44956,-0.75623 1.11808,-1.97171 1.48562,-2.70107 0.36753,-0.72936 0.70665,-1.51815 0.75359,-1.75287 0.0469,-0.23471 0.031,-0.42675 -0.0355,-0.42675 -0.0665,0 -0.306,0.31254 -0.53226,0.69453 -0.22627,0.38199 -0.48108,0.91623 -0.56625,1.18719 -0.0852,0.27096 -0.63398,1.25323 -1.21959,2.18281 -0.58561,0.92959 -1.24066,1.97164 -1.45567,2.31567 -0.22174,0.35481 -0.34825,0.69455 -0.29233,0.78503 0.0672,0.10878 0.24913,-0.0105 0.57182,-0.37503 0.26028,-0.294 0.84105,-1.15328 1.2906,-1.90951 z m -2.87829,0.86146 c -0.10148,-0.12228 -0.21055,-0.15015 -0.28729,-0.0734 -0.0767,0.0767 -0.0627,0.23757 0.0368,0.42364 0.14538,0.27164 0.17248,0.27856 0.28729,0.0734 0.0861,-0.15376 0.0742,-0.28983 -0.0368,-0.42364 z m -0.85414,-1.45415 c 0.12333,-0.18821 0.18685,-0.37959 0.14116,-0.42527 -0.0457,-0.0457 -0.18438,-0.0196 -0.30822,0.0581 -0.12384,0.0776 -0.24419,0.26899 -0.26744,0.42527 -0.0232,0.15628 0.0146,0.28415 0.084,0.28415 0.0695,0 0.22718,-0.154 0.3505,-0.34221 z m 1.92581,-0.14358 c 0.28117,-0.23659 0.73993,-1.01316 1.3872,-2.34818 0.53191,-1.09707 1.3503,-2.88765 1.81865,-3.97905 0.46835,-1.09141 0.99082,-2.37701 1.16104,-2.8569 0.3095,-0.87251 0.3095,-0.87251 -0.035,-1.4552 -0.18946,-0.32049 -1.09022,-1.51647 -2.00169,-2.65776 -0.91146,-1.14129 -1.77118,-2.13606 -1.91048,-2.21061 -0.1988,-0.1064 -0.34813,-0.0656 -0.6944,0.18991 -0.30775,0.22705 -0.61335,0.32545 -1.01074,0.32545 -0.31328,0 -0.56961,0.0583 -0.56961,0.12961 0,0.0713 0.25301,0.25787 0.56224,0.41464 0.30923,0.15678 0.60598,0.35146 0.65944,0.43264 0.0534,0.0812 0.0981,0.28469 0.0992,0.45227 0.001,0.16757 -0.1468,0.52369 -0.3287,0.79138 -0.1819,0.26769 -0.33073,0.56219 -0.33073,0.65444 0,0.0923 0.0801,0.16773 0.17794,0.16773 0.0979,0 0.28568,-0.11906 0.41737,-0.26458 0.1317,-0.14552 0.37905,-0.26459 0.54967,-0.26459 0.26436,0 0.31023,0.0662 0.31023,0.44795 0,0.30234 -0.17201,0.70553 -0.52917,1.24038 -0.39649,0.59375 -0.52916,0.92475 -0.52916,1.32015 0,0.33356 0.10087,0.65596 0.27418,0.87629 0.1508,0.19171 0.37755,0.34857 0.50388,0.34857 0.12634,0 0.34526,-0.0874 0.4865,-0.19423 0.14123,-0.10683 0.36097,-0.19613 0.4883,-0.19844 0.14421,-0.003 0.23151,0.0949 0.23151,0.2586 0,0.17098 -0.15022,0.32638 -0.42995,0.44476 -0.23647,0.10008 -0.53529,0.30033 -0.66406,0.44502 -0.12876,0.14468 -0.38177,0.84514 -0.56224,1.55657 -0.18047,0.71144 -0.32812,1.43471 -0.32812,1.60728 0,0.17258 0.0355,0.31377 0.0788,0.31377 0.0433,0 0.25205,-0.12336 0.46379,-0.27414 0.21174,-0.15077 0.48882,-0.25444 0.61573,-0.23037 0.14036,0.0266 0.24745,0.18895 0.27338,0.41442 0.0234,0.20387 -0.0352,0.46447 -0.13035,0.5791 -0.0951,0.11464 -0.40099,0.35237 -0.67967,0.52829 -0.27867,0.17592 -0.48441,0.38668 -0.45719,0.46834 0.0272,0.0817 0.28412,0.22168 0.57089,0.31114 0.45475,0.14186 0.48496,0.17425 0.23639,0.25339 -0.19437,0.0619 -0.32917,0.26567 -0.42392,0.64086 -0.0764,0.30256 -0.28849,0.75248 -0.47128,0.99981 -0.1828,0.24733 -0.30106,0.50034 -0.2628,0.56224 0.0383,0.0619 0.18054,0.11255 0.31619,0.11255 0.13564,0 0.43567,-0.15908 0.66673,-0.3535 z m -0.0651,-13.79529 c -0.0471,-0.0763 -0.0489,-0.19825 -0.004,-0.27101 0.045,-0.0728 0.16755,-0.13229 0.27239,-0.13229 0.10485,0 0.19063,0.0522 0.19063,0.1161 0,0.0639 -0.084,0.1858 -0.18666,0.271 -0.1276,0.1059 -0.21378,0.11103 -0.27239,0.0162 z m -95.591516,10.2688 c -0.228045,-0.63023 -0.744766,-1.66705 -1.148269,-2.30404 -0.403502,-0.63699 -0.987452,-1.69394 -1.297666,-2.34879 -0.310214,-0.65484 -0.805626,-1.93476 -1.100916,-2.84427 -0.29529,-0.9095 -0.658906,-2.12989 -0.808034,-2.71198 -0.149129,-0.58208 -0.340239,-1.87433 -0.42469,-2.87165 -0.115129,-1.35963 -0.116408,-2.40227 -0.0051,-4.16719 0.105421,-1.67174 0.242564,-2.71806 0.473251,-3.61064 0.178648,-0.69122 0.53898,-1.76278 0.800738,-2.38125 0.261758,-0.61846 0.832475,-1.83885 1.26826,-2.71197 0.435785,-0.87313 0.755124,-1.43868 0.709642,-1.25678 -0.04548,0.18191 -0.581137,1.49797 -1.190345,2.9246 -0.609207,1.42663 -1.233743,3.06374 -1.387856,3.63802 -0.23005,0.85725 -0.291888,1.55327 -0.345469,3.88843 -0.05136,2.23853 -0.01813,3.16556 0.156048,4.3529 0.12172,0.82974 0.393291,2.17564 0.603491,2.99088 0.2102,0.81524 0.599965,2.02638 0.866145,2.69142 0.26618,0.66505 0.750262,1.6111 1.075739,2.10235 0.591777,0.89317 0.591777,0.89317 0.511376,0.36401 -0.04422,-0.29104 -0.13603,-2.10675 -0.204021,-4.0349 -0.06799,-1.92815 -0.185511,-3.98198 -0.261157,-4.56406 -0.07565,-0.58208 -0.192145,-1.38576 -0.258887,-1.78594 -0.06674,-0.40018 -0.159098,-1.15625 -0.205236,-1.68014 -0.04614,-0.5239 -0.01723,-1.5657 0.06424,-2.31511 0.08147,-0.74941 0.298111,-2.13647 0.481427,-3.08235 0.183315,-0.94589 0.538628,-2.25168 0.789585,-2.90177 0.250955,-0.65009 0.580199,-1.38248 0.731651,-1.62753 0.151452,-0.24506 0.302972,-0.41795 0.336712,-0.38421 0.03374,0.0337 -0.149211,0.54023 -0.406556,1.12554 -0.257345,0.58531 -0.559739,1.38011 -0.671986,1.76623 -0.112248,0.38612 -0.351916,1.68358 -0.532598,2.88324 -0.180681,1.19966 -0.328787,2.62769 -0.329125,3.17339 -3.44e-4,0.54571 0.06175,1.70313 0.137969,2.57205 0.07622,0.86891 0.184258,1.66147 0.240083,1.76122 0.08524,0.15231 0.1253,0.15269 0.250038,0.002 0.0817,-0.0984 0.356957,-0.66591 0.611691,-1.26106 0.254735,-0.59515 0.502585,-1.29228 0.550779,-1.54917 0.05033,-0.2683 0.165816,-0.46709 0.27134,-0.46709 0.101043,0 0.183715,0.0609 0.183715,0.13524 0,0.0744 0.250227,0.40672 0.55606,0.73851 0.305833,0.33179 0.993974,0.95553 1.529202,1.3861 0.535229,0.43057 1.025203,0.78286 1.088832,0.78286 0.06363,0 -0.100077,-0.6102 -0.363792,-1.35599 -0.46917,-1.32683 -0.479306,-1.39725 -0.471253,-3.27422 0.0045,-1.05503 0.07667,-2.39448 0.160323,-2.97656 0.08365,-0.58209 0.331064,-1.80248 0.549806,-2.71198 0.218742,-0.90951 0.544516,-2.2192 0.723942,-2.91042 0.179425,-0.69122 0.47894,-1.79255 0.665588,-2.4474 0.209248,-0.73413 0.368571,-1.70172 0.415551,-2.52368 0.0506,-0.88531 0.02232,-1.49628 -0.08419,-1.81901 -0.08821,-0.26727 -0.24506,-0.48595 -0.348557,-0.48595 -0.131987,0 -0.188178,-0.16131 -0.188178,-0.54019 0,-0.29711 -0.05402,-0.52035 -0.120049,-0.4961 -0.06603,0.0243 -0.765543,0.73042 -1.554482,1.56924 -0.788938,0.83883 -2.167805,2.32349 -3.064149,3.29925 -0.896344,0.97575 -2.046979,2.3981 -2.556967,3.16077 -0.509989,0.76267 -1.24412,2.04622 -1.631404,2.85232 -0.387283,0.80611 -0.913616,2.06791 -1.169628,2.80402 -0.256011,0.7361 -0.616677,2.01602 -0.801479,2.84427 -0.184802,0.82824 -0.404519,2.19051 -0.488261,3.02725 -0.08374,0.83675 -0.113679,2.04333 -0.06653,2.6813 0.04715,0.63797 0.148437,1.50117 0.225076,1.91823 0.07664,0.41706 0.310707,1.29448 0.520148,1.94984 0.209442,0.65536 0.792994,2.02479 1.296782,3.04318 0.503787,1.01839 1.407064,2.59555 2.00728,3.5048 0.600217,0.90924 1.360298,2.01036 1.68907,2.44692 0.328772,0.43656 0.751904,0.96184 0.940294,1.16728 0.236993,0.25845 0.354398,0.31618 0.38106,0.18737 0.02119,-0.10238 -0.148047,-0.7018 -0.376092,-1.33203 z m 0.326203,-17.48512 c -0.06651,-0.14552 -0.114043,-1.06825 -0.105618,-2.05052 0.01084,-1.26329 0.09768,-2.17789 0.296769,-3.12528 0.154797,-0.73664 0.571984,-2.10586 0.92708,-3.04271 0.355097,-0.93685 1.102828,-2.79953 1.661624,-4.13928 0.558796,-1.33976 1.099716,-2.58991 1.202043,-2.77813 0.102328,-0.18821 0.188434,-0.29871 0.191347,-0.24556 0.0029,0.0532 -0.41724,1.18424 -0.933675,2.51354 -0.516434,1.32929 -1.190994,3.10151 -1.499023,3.93825 -0.308028,0.83675 -0.685944,1.99761 -0.839812,2.57969 -0.153869,0.58209 -0.342512,1.52401 -0.419206,2.09317 -0.0767,0.56916 -0.143858,1.55142 -0.149251,2.18281 -0.0054,0.63139 -0.05515,1.41587 -0.110573,1.74329 -0.08459,0.49976 -0.120179,0.55285 -0.221705,0.33073 z m 0.450719,-10.7487 c 0.207365,-0.41837 0.572434,-1.25263 0.811266,-1.85392 0.238832,-0.60129 0.495428,-1.13106 0.570213,-1.17728 0.08876,-0.0549 0.103323,0.0491 0.04194,0.29949 -0.05172,0.21095 -0.309819,0.88955 -0.573552,1.50802 -0.263733,0.61846 -0.593166,1.31795 -0.732074,1.55442 -0.138907,0.23647 -0.307067,0.42995 -0.373688,0.42995 -0.06662,0 0.04853,-0.3423 0.255899,-0.76068 z m 93.156984,29.40183 c 0.13705,-0.16514 0.12029,-0.19844 -0.0999,-0.19844 -0.14552,0 -0.33869,0.0893 -0.42927,0.19844 -0.13705,0.16514 -0.12029,0.19843 0.0999,0.19843 0.14552,0 0.3387,-0.0893 0.42928,-0.19843 z m 0,-1.5875 c 0.13705,-0.16514 0.12029,-0.19844 -0.0999,-0.19844 -0.14552,0 -0.33869,0.0893 -0.42927,0.19844 -0.13705,0.16514 -0.12029,0.19843 0.0999,0.19843 0.14552,0 0.3387,-0.0893 0.42928,-0.19843 z m 0.92604,-3.22495 c 0,-0.13661 -0.0744,-0.30939 -0.16537,-0.38394 -0.0909,-0.0746 -0.42438,-0.20482 -0.74096,-0.28948 -0.31657,-0.0847 -0.60783,-0.12168 -0.64723,-0.0823 -0.0394,0.0394 0.0113,0.17203 0.11257,0.29472 0.10132,0.12269 0.36281,0.33227 0.58109,0.46573 0.21828,0.13345 0.50106,0.24287 0.62839,0.24314 0.13846,2.6e-4 0.23151,-0.0993 0.23151,-0.24789 z m 6.99833,-0.57844 c 0.0609,-0.16371 0.0823,-0.37207 0.0477,-0.46302 -0.0346,-0.0909 -0.13947,-0.16536 -0.23304,-0.16536 -0.0936,0 -0.20627,0.0942 -0.25043,0.20925 -0.0442,0.11509 -0.0803,0.32345 -0.0803,0.46302 0,0.13975 0.0911,0.25377 0.2027,0.25377 0.11148,0 0.25249,-0.13395 0.31334,-0.29766 z m -7.5275,-1.34818 c 0,-0.10485 -0.0647,-0.23063 -0.14382,-0.27952 -0.0791,-0.0489 -0.20488,-0.0278 -0.27951,0.0468 -0.0746,0.0746 -0.0957,0.20041 -0.0468,0.27951 0.0489,0.0791 0.17466,0.14382 0.27951,0.14382 0.10485,0 0.19063,-0.0858 0.19063,-0.19063 z m -0.59531,-1.52916 c 0,-0.16978 -0.0744,-0.33348 -0.1653,-0.36378 -0.0909,-0.0303 -0.20146,0.0392 -0.24566,0.15434 -0.0442,0.11519 -0.0442,0.30368 0,0.41888 0.0442,0.11519 0.15475,0.18464 0.24566,0.15434 0.0909,-0.0303 0.1653,-0.19401 0.1653,-0.36378 z m 6.67913,-0.95912 c -9.2e-4,-0.091 -0.1506,-0.42602 -0.33272,-0.74461 -0.18211,-0.31858 -0.72902,-1.15202 -1.21534,-1.85208 -0.48631,-0.70006 -1.20886,-1.61514 -1.60565,-2.03352 -0.45479,-0.47954 -0.82962,-0.76067 -1.01418,-0.76067 -0.16101,0 -0.44411,-0.11907 -0.62911,-0.26459 -0.185,-0.14552 -0.40139,-0.26458 -0.48086,-0.26458 -0.0795,0 -0.1445,0.0353 -0.1445,0.0785 0,0.0432 0.46407,0.59385 1.03126,1.2237 0.5672,0.62985 1.3536,1.53213 1.74756,2.00507 0.39396,0.47295 1.0961,1.2915 1.56031,1.81901 0.46422,0.52752 0.89821,0.95912 0.96443,0.95912 0.0662,0 0.11968,-0.0744 0.1188,-0.16537 z M 55.181934,171.91649 c 0,-0.075 -0.09186,-0.17169 -0.204143,-0.21478 -0.112279,-0.0431 -0.237302,-0.0452 -0.27783,-0.005 -0.04053,0.0405 -0.03445,0.13718 0.01351,0.21478 0.04796,0.0776 0.172984,0.1411 0.27783,0.1411 0.104847,0 0.19063,-0.0614 0.19063,-0.13645 z m 0.926042,-0.26678 c 0,-0.0607 -0.06238,-0.14888 -0.138627,-0.196 -0.07625,-0.0471 -0.231777,-0.0499 -0.345628,-0.006 -0.163255,0.0626 -0.173851,0.11938 -0.05014,0.26845 0.08628,0.10395 0.241808,0.15641 0.345629,0.11657 0.10382,-0.0398 0.188765,-0.12208 0.188765,-0.18277 z m 92.736444,0.0328 c 0,-0.0582 -0.0714,-0.17727 -0.15875,-0.26458 -0.0873,-0.0873 -0.23823,-0.15875 -0.33538,-0.15875 -0.13564,0 -0.14377,0.0614 -0.035,0.26458 0.0779,0.14552 0.2288,0.26458 0.33538,0.26458 0.10658,0 0.19378,-0.0476 0.19378,-0.10583 z m 7.78206,-0.27379 c 0.0236,-0.16101 -0.13059,-0.66367 -0.34274,-1.11702 -0.21215,-0.45335 -1.16591,-1.98383 -2.11946,-3.40106 -0.95356,-1.41723 -2.06957,-2.98333 -2.48002,-3.48023 -0.41046,-0.4969 -0.77692,-0.87283 -0.81435,-0.8354 -0.0374,0.0374 0.022,0.3547 0.13211,0.70502 0.11009,0.35033 0.23686,0.80269 0.28171,1.00526 0.0469,0.21165 0.21889,0.43088 0.40447,0.51544 0.17761,0.0809 0.29151,0.19796 0.25312,0.26008 -0.0384,0.0621 -0.24488,0.11295 -0.45887,0.11295 -0.21399,0 -0.38907,0.055 -0.38907,0.12214 0,0.0672 0.163,0.32019 0.36222,0.56224 0.19922,0.24205 0.84852,0.98284 1.44289,1.64618 0.59438,0.66335 1.59795,1.90168 2.23018,2.75184 0.63222,0.85017 1.21819,1.52316 1.30215,1.49554 0.084,-0.0276 0.17201,-0.18197 0.19566,-0.34298 z m -92.448713,-1.00711 c 0,-0.0351 -0.247155,-0.4667 -0.549234,-0.95911 -0.302079,-0.49242 -0.803268,-1.40132 -1.113754,-2.01978 -0.310486,-0.61847 -0.68688,-1.50173 -0.836433,-1.96281 -0.149552,-0.46108 -0.340862,-1.35405 -0.425136,-1.98437 -0.102737,-0.76843 -0.125872,-2.23581 -0.07021,-4.45334 0.04565,-1.81901 0.14156,-3.66448 0.213121,-4.10104 0.07156,-0.43657 0.170329,-1.55278 0.219485,-2.48047 0.05903,-1.11412 0.04368,-1.68672 -0.04522,-1.68672 -0.07403,0 -0.348667,0.72926 -0.610307,1.62057 -0.26164,0.89132 -0.652329,2.34523 -0.868199,3.23091 -0.21587,0.88569 -0.499624,2.2549 -0.630565,3.04271 -0.160227,0.96401 -0.23912,2.14611 -0.241275,3.61518 -0.0028,1.89233 0.03744,2.32366 0.302194,3.24115 0.167968,0.58208 0.509932,1.48457 0.759921,2.00554 0.29278,0.61014 0.660975,1.12798 1.034681,1.45521 0.319084,0.2794 1.011435,0.73124 1.538557,1.00409 0.527121,0.27285 1.040298,0.4961 1.140392,0.4961 0.100095,0 0.18199,-0.0287 0.18199,-0.0638 z m 92.471863,-1.14079 c 0,-0.15321 -0.0945,-0.64434 -0.21002,-1.0914 -0.11551,-0.44707 -0.47186,-1.32047 -0.7919,-1.94089 -0.32004,-0.62043 -1.34174,-2.14057 -2.27045,-3.37809 -0.92871,-1.23752 -1.91848,-2.53011 -2.19949,-2.87242 -0.281,-0.34231 -0.56377,-0.58971 -0.62838,-0.54979 -0.0646,0.0399 -0.11747,0.11966 -0.11747,0.17718 0,0.0575 0.17751,0.36654 0.39447,0.68672 0.21696,0.32018 0.39555,0.75624 0.39688,0.96901 0.002,0.38687 0.002,0.38687 -0.30378,0.0992 -0.1684,-0.1582 -0.37676,-0.28764 -0.46302,-0.28764 -0.0863,0 -0.15684,0.056 -0.15684,0.12441 0,0.0684 0.29622,0.37419 0.65826,0.67948 0.36205,0.30527 0.6943,0.66859 0.73834,0.80737 0.044,0.13877 0.71025,1.12782 1.48044,2.19787 0.7702,1.07006 1.72727,2.45157 2.12683,3.07003 0.39957,0.61847 0.8156,1.22866 0.92452,1.35599 0.10892,0.12733 0.24834,0.23151 0.30982,0.23151 0.0615,0 0.11179,-0.12535 0.11179,-0.27856 z m -7.01146,-2.57351 c 0,-0.10485 -0.0595,-0.19063 -0.13229,-0.19063 -0.0728,0 -0.13229,0.12257 -0.13229,0.27239 0,0.14981 0.0595,0.2356 0.13229,0.19063 0.0728,-0.045 0.13229,-0.16755 0.13229,-0.27239 z m 1.42095,-0.55068 c 0.0296,-0.0889 -0.0999,-0.31533 -0.2878,-0.50321 -0.18789,-0.18789 -0.40307,-0.30363 -0.47818,-0.25721 -0.0751,0.0464 -0.0971,0.21333 -0.0488,0.37092 0.0482,0.15759 0.14937,0.36349 0.22472,0.45756 0.0754,0.0941 0.22685,0.15361 0.33665,0.1323 0.1098,-0.0213 0.22385,-0.11148 0.25345,-0.20036 z m 4.66447,-1.37712 c 0,-0.22783 -0.18424,-0.95709 -0.40942,-1.62057 -0.22518,-0.66348 -0.76853,-1.93786 -1.20743,-2.83195 -0.43891,-0.89409 -1.20122,-2.23612 -1.69402,-2.98229 -0.49281,-0.74617 -1.14423,-1.58092 -1.4476,-1.855 -0.30337,-0.27407 -0.62186,-0.47383 -0.70775,-0.4439 -0.0859,0.0299 -0.14193,0.16746 -0.12451,0.30562 0.0174,0.13816 0.0769,0.5391 0.13229,0.89099 0.0766,0.48727 0.1785,0.6813 0.42727,0.81392 0.32455,0.173 0.32286,0.17517 -0.26458,0.33727 -0.59123,0.16315 -0.59123,0.16315 -0.19435,0.29525 0.21828,0.0727 0.46375,0.18468 0.5455,0.24894 0.0817,0.0643 0.18619,0.39857 0.23211,0.74291 0.0459,0.34435 0.19879,0.81528 0.33973,1.04651 0.14094,0.23125 0.87164,1.18375 1.62377,2.11667 0.75212,0.93293 1.62743,2.0683 1.94512,2.52306 0.31769,0.45475 0.62853,0.82682 0.69075,0.82682 0.0622,0 0.11312,-0.18641 0.11312,-0.41425 z m -4.04601,-5.18942 c -0.0426,-0.11094 -0.0567,-0.30937 -0.0313,-0.44095 0.0253,-0.13158 0.13456,-0.23923 0.2427,-0.23923 0.12903,0 0.19663,0.13264 0.19663,0.38585 0,0.21221 -0.0744,0.41064 -0.1653,0.44094 -0.0909,0.0303 -0.20012,-0.0357 -0.24269,-0.14661 z m -2.62047,-10.87633 c 0.047,-0.18723 0.0247,-0.40117 -0.0496,-0.47543 -0.0743,-0.0743 -0.24483,-0.11386 -0.37906,-0.088 -0.13422,0.0258 -0.26452,0.15336 -0.28955,0.28334 -0.025,0.13 0.0262,0.32279 0.11389,0.42843 0.0877,0.10565 0.24029,0.19209 0.33914,0.19209 0.0988,0 0.21816,-0.15319 0.26515,-0.34042 z m -0.55714,-3.57413 c 0.0444,-0.1157 0.0473,-0.26453 0.006,-0.33072 -0.0409,-0.0662 -0.16017,-0.12036 -0.26502,-0.12036 -0.10484,0 -0.19063,0.10914 -0.19063,0.24254 0,0.13339 0.0397,0.28222 0.0882,0.33072 0.0485,0.0485 0.13143,0.0882 0.18428,0.0882 0.0529,0 0.13242,-0.0947 0.17682,-0.21038 z M 55.639063,142.3211 c 0.04439,-0.11568 0.02973,-0.26132 -0.03258,-0.32363 -0.06287,-0.0629 -0.217776,0.002 -0.348025,0.14608 -0.129101,0.14265 -0.197226,0.32005 -0.151387,0.39422 0.04584,0.0742 0.166129,0.10308 0.267314,0.0643 0.101184,-0.0388 0.220292,-0.16524 0.264683,-0.28092 z m 92.336197,-1.60631 c 0.0399,-0.0645 -0.0187,-0.19296 -0.13009,-0.28543 -0.14395,-0.11947 -0.24357,-0.12715 -0.3442,-0.0265 -0.0779,0.0779 -0.10162,0.20633 -0.0527,0.28543 0.0489,0.0791 0.17115,0.14382 0.2717,0.14382 0.10056,0 0.21545,-0.0528 0.25532,-0.1173 z m 2.3722,-12.17397 c 0.49925,-0.47946 1.35866,-1.40753 1.90979,-2.06237 0.55113,-0.65485 1.44654,-1.78594 1.9898,-2.51354 0.54326,-0.72761 1.1911,-1.7492 1.43965,-2.27022 0.26474,-0.55493 0.50963,-1.33618 0.59127,-1.88621 0.099,-0.66724 0.0971,-1.33944 -0.007,-2.32313 -0.0803,-0.76132 -0.24322,-1.77125 -0.36205,-2.2443 -0.11882,-0.47305 -0.30818,-0.93612 -0.42079,-1.02905 -0.18285,-0.15091 -0.19523,-0.0629 -0.11579,0.82322 0.0489,0.5457 0.12629,1.55895 0.17191,2.25166 0.0617,0.93611 0.0252,1.54448 -0.14196,2.36949 -0.1237,0.6105 -0.39511,1.48537 -0.60313,1.94415 -0.20802,0.45877 -0.73704,1.35704 -1.1756,1.99614 -0.43856,0.6391 -1.42984,1.89746 -2.20284,2.79636 -0.773,0.8989 -1.66897,1.9579 -1.99105,2.35333 -0.32208,0.39542 -0.5856,0.77827 -0.5856,0.85075 0,0.0797 0.1176,0.0693 0.29765,-0.0264 0.16371,-0.087 0.70614,-0.55045 1.20539,-1.02992 z m 1.81143,-0.38745 c 0.32347,-0.20658 0.99046,-0.74173 1.48219,-1.18922 0.49174,-0.4475 1.29989,-1.25882 1.7959,-1.80295 0.51969,-0.57011 1.08674,-1.36855 1.3382,-1.88429 0.24001,-0.49223 0.51622,-1.34247 0.61382,-1.88942 0.0976,-0.54695 0.17473,-1.56001 0.17141,-2.25123 -0.003,-0.69122 -0.0756,-1.52466 -0.16075,-1.85208 -0.0851,-0.32742 -0.21425,-0.59532 -0.28701,-0.59532 -0.0752,0 -0.16953,0.64188 -0.21864,1.48835 -0.0535,0.92145 -0.19678,1.85365 -0.37627,2.4474 -0.15945,0.52747 -0.55233,1.46854 -0.87306,2.09125 -0.32073,0.62271 -1.04438,1.702 -1.60811,2.39843 -0.56373,0.69643 -1.39703,1.69164 -1.85178,2.21157 -0.45475,0.51992 -0.82682,1.00332 -0.82682,1.07421 0,0.0709 0.0479,0.1289 0.10639,0.1289 0.0585,0 0.37105,-0.16902 0.69453,-0.3756 z m 0.30727,-3.72094 c 0.55861,-0.74155 1.22657,-1.76711 1.48436,-2.27902 0.25779,-0.5119 0.5836,-1.37994 0.72402,-1.92896 0.18046,-0.7056 0.25507,-1.44769 0.25453,-2.53149 -3.9e-4,-0.84329 -0.0582,-1.88419 -0.12847,-2.3131 -0.0702,-0.42891 -0.21978,-1.09654 -0.33231,-1.48363 -0.11253,-0.38708 -0.35524,-0.86959 -0.53937,-1.07224 -0.33477,-0.36846 -0.33477,-0.36846 -0.22917,0.62373 0.0581,0.5457 0.0969,1.85539 0.0863,2.91042 -0.0115,1.14258 -0.10398,2.34033 -0.2287,2.96212 -0.13318,0.66397 -0.4729,1.59191 -0.93342,2.54962 -0.39822,0.82815 -1.05709,2.01667 -1.46414,2.64115 -0.40706,0.62449 -1.03501,1.52498 -1.39544,2.0011 -0.36043,0.47612 -0.65533,0.96593 -0.65533,1.08848 0,0.12254 0.0446,0.26806 0.0992,0.32338 0.0546,0.0553 0.58141,-0.40429 1.17075,-1.02135 0.58935,-0.61706 1.52858,-1.72865 2.08718,-2.47021 z m -3.68004,2.23176 c 0.0493,-0.0797 -0.006,-0.2409 -0.12354,-0.35813 -0.14755,-0.14755 -0.25548,-0.17081 -0.35072,-0.0756 -0.0757,0.0757 -0.0995,0.23682 -0.0529,0.35813 0.0466,0.1213 0.16405,0.22056 0.26111,0.22056 0.0971,0 0.2168,-0.0652 0.26608,-0.14499 z m -94.730868,-1.211 c -0.03481,-0.30923 -0.183228,-1.99099 -0.329821,-3.73724 -0.146593,-1.74625 -0.325312,-3.72074 -0.397152,-4.38775 -0.07184,-0.66701 -0.166777,-1.30697 -0.210969,-1.42213 -0.04419,-0.11517 -0.134985,-0.20939 -0.201762,-0.20939 -0.06678,0 -0.177997,0.14883 -0.247155,0.33073 -0.06916,0.1819 -0.196012,0.33073 -0.281895,0.33073 -0.08588,0 -0.355484,-0.15204 -0.599113,-0.33787 -0.412194,-0.31439 -0.463345,-0.32358 -0.736454,-0.13229 -0.161421,0.11307 -0.447275,0.20557 -0.635231,0.20557 -0.187955,0 -0.533496,0.14148 -0.767868,0.31439 -0.234373,0.17292 -0.666715,0.35286 -0.960762,0.39988 -0.300518,0.0481 -0.675508,0.22637 -0.856342,0.4072 -0.17694,0.17694 -0.32171,0.45038 -0.32171,0.60763 0,0.15725 0.09533,0.59156 0.211844,0.96513 0.116514,0.37356 0.295576,0.94117 0.397914,1.26134 0.102339,0.32018 0.507222,1.06432 0.899741,1.65365 0.39252,0.58933 1.091544,1.4494 1.553388,1.91127 0.461844,0.46186 1.364517,1.19112 2.005938,1.62057 0.641422,0.42945 1.250479,0.78082 1.353459,0.78082 0.142012,0 0.171951,-0.13581 0.12395,-0.56224 z m 96.693228,-1.45521 c 0.34966,-0.52751 0.89478,-1.49835 1.21137,-2.15741 0.31659,-0.65907 0.70096,-1.65519 0.85416,-2.2136 0.15319,-0.55841 0.32885,-1.64391 0.39035,-2.41222 0.0621,-0.77587 0.0608,-1.80277 -0.003,-2.30978 -0.063,-0.50206 -0.29579,-1.38263 -0.51721,-1.9568 -0.22143,-0.57418 -0.53859,-1.17172 -0.70481,-1.32787 -0.16622,-0.15616 -0.49617,-0.35153 -0.73322,-0.43417 -0.23706,-0.0826 -0.47262,-0.10873 -0.52348,-0.058 -0.0508,0.0507 -0.152,0.29118 -0.22476,0.5343 -0.0991,0.33102 -0.37919,0.61899 -1.11544,1.14672 -0.54074,0.38758 -1.00635,0.77696 -1.0347,0.86529 -0.0366,0.11388 0.14223,0.15237 0.61455,0.1323 0.46924,-0.0199 0.72998,0.0356 0.88229,0.18781 0.15268,0.15262 0.24736,0.5996 0.32226,1.52135 0.0583,0.71788 0.16848,1.4647 0.24476,1.65961 0.13795,0.35244 0.13604,0.35391 -0.35052,0.27106 -0.26908,-0.0458 -0.63807,-0.0862 -0.81997,-0.0898 -0.28808,-0.006 -0.33602,0.0575 -0.37179,0.48961 -0.0401,0.48418 -0.0302,0.49609 0.40945,0.49609 0.27588,0 0.5394,0.0982 0.67984,0.25342 0.12614,0.13937 0.34566,0.62716 0.48784,1.08397 0.14217,0.45681 0.22866,0.90832 0.19219,1.00336 -0.0365,0.095 -0.17768,0.17279 -0.31381,0.17279 -0.13763,0 -0.31649,-0.15142 -0.40292,-0.34112 -0.0855,-0.18761 -0.22899,-0.31696 -0.31889,-0.28743 -0.0899,0.0295 -0.18195,0.2724 -0.20454,0.53971 -0.0338,0.40016 0.0295,0.55047 0.35832,0.85081 0.39939,0.36479 0.39939,0.36479 0.21916,1.40264 -0.0991,0.57082 -0.2361,1.09373 -0.30439,1.16202 -0.0774,0.0774 -0.188,0.0473 -0.29351,-0.0799 -0.0931,-0.11222 -0.24097,-0.20404 -0.32852,-0.20404 -0.0875,0 -0.29973,0.14962 -0.47153,0.33248 -0.19268,0.2051 -0.26487,0.37888 -0.18842,0.45359 0.0682,0.0666 0.33228,0.14559 0.58695,0.17551 0.25466,0.0299 0.61444,0.0639 0.79951,0.0756 0.28005,0.0176 0.44316,-0.13973 0.97225,-0.93794 z m -1.04474,-10.68349 c -0.0453,-0.0733 0.0133,-0.16992 0.13019,-0.21478 0.11689,-0.0448 0.24569,-0.0484 0.28622,-0.008 0.0405,0.0405 0.0344,0.13718 -0.0135,0.21478 -0.048,0.0776 -0.1397,0.1411 -0.20387,0.1411 -0.0642,0 -0.15373,-0.06 -0.19902,-0.13323 z m -101.717449,2.04177 c 0.04723,-0.18818 0.02098,-0.40488 -0.05871,-0.48456 -0.104003,-0.104 -0.182623,-0.043 -0.282302,0.21922 -0.07598,0.19986 -0.104449,0.41791 -0.06325,0.48457 0.0412,0.0666 0.129783,0.12119 0.196863,0.12119 0.06708,0 0.160411,-0.15319 0.207403,-0.34042 z m 1.837831,-0.0565 c -0.04497,-0.0728 -0.227075,-0.13229 -0.404682,-0.13229 -0.177607,0 -0.322922,0.0595 -0.322922,0.13229 0,0.0728 0.182107,0.13229 0.404682,0.13229 0.236101,0 0.370623,-0.0551 0.322922,-0.13229 z m 2.315104,-0.0661 c 0,-0.10914 -0.0893,-0.19844 -0.198438,-0.19844 -0.10914,0 -0.198437,0.0496 -0.198437,0.11024 0,0.0606 0.03969,0.14993 0.08819,0.19844 0.04851,0.0485 0.137804,0.0882 0.198438,0.0882 0.06063,0 0.110243,-0.0893 0.110243,-0.19843 z m 1.058333,-0.32182 c 0,-0.0679 -0.118529,-0.161 -0.263399,-0.20697 -0.14487,-0.046 -0.324435,-0.0459 -0.399033,2.6e-4 -0.0746,0.0461 -0.101384,0.13924 -0.05952,0.20698 0.04186,0.0677 0.221426,0.12311 0.399033,0.12311 0.177607,0 0.322921,-0.0555 0.322921,-0.12338 z m -4.232032,-0.89217 c 0.215792,-0.34026 0.429951,-0.81911 0.47591,-1.06409 0.06313,-0.33653 0.31291,-0.64614 1.021738,-1.26648 0.515997,-0.45159 1.29683,-1.15925 1.735185,-1.57259 0.438356,-0.41334 0.757389,-0.79115 0.708964,-0.83958 -0.04842,-0.0484 -0.375003,0.10824 -0.725728,0.34814 -0.350725,0.2399 -1.278091,1.05918 -2.060812,1.82061 -0.977808,0.95121 -1.531245,1.6054 -1.768639,2.09061 -0.281311,0.57499 -0.314988,0.74298 -0.181245,0.90413 0.09035,0.10886 0.217818,0.19792 0.283272,0.19792 0.06545,0 0.295563,-0.2784 0.511355,-0.61867 z m 3.706176,-2.19252 c 0.241622,-0.16371 0.463746,-0.37207 0.493609,-0.46302 0.02986,-0.0909 -0.03539,-0.16537 -0.145016,-0.16537 -0.109621,0 -0.382473,0.15412 -0.606337,0.34249 -0.223863,0.18837 -0.407025,0.39673 -0.407025,0.46302 0,0.0663 0.05073,0.12054 0.112728,0.12054 0.062,0 0.310419,-0.13395 0.552041,-0.29766 z m -0.58606,-0.60439 c 0.429653,-0.27784 0.889194,-0.61334 1.021202,-0.74556 0.163745,-0.164 0.196971,-0.28343 0.104562,-0.37584 -0.09241,-0.0924 -0.302125,-0.0251 -0.659953,0.21165 -0.288474,0.1909 -0.737363,0.53399 -0.99753,0.76242 -0.260167,0.22843 -0.473031,0.46869 -0.473031,0.53391 0,0.0652 0.0503,0.11859 0.111781,0.11859 0.06148,0 0.463316,-0.22733 0.892969,-0.50517 z m 96.964337,0.0968 c 0.0489,-0.0791 0.0266,-0.20607 -0.0494,-0.28215 -0.0761,-0.0761 -0.23833,-0.1 -0.36056,-0.0531 -0.18045,0.0692 -0.19151,0.12229 -0.0588,0.28215 0.0899,0.10828 0.21212,0.19687 0.27167,0.19687 0.0596,0 0.14829,-0.0647 0.19717,-0.14381 z m 3.6309,-1.17326 c 0,-0.0696 -0.40183,-0.35938 -0.89297,-0.64407 -0.49113,-0.28469 -1.78593,-0.96878 -2.87734,-1.5202 -1.09141,-0.55143 -2.69057,-1.42269 -3.55371,-1.93615 -0.86313,-0.51345 -2.13578,-1.32848 -2.82811,-1.81118 -0.69234,-0.4827 -1.80184,-1.32926 -2.46556,-1.88124 -0.66373,-0.55198 -1.70575,-1.48138 -2.31561,-2.06533 -0.60986,-0.583947 -1.90051,-1.960817 -2.86811,-3.059717 -0.96759,-1.09889 -2.13549,-2.33921 -2.59533,-2.75626 -0.45983,-0.41705 -1.27265,-1.05089 -1.80626,-1.40852 -0.60929,-0.40836 -1.11371,-0.65025 -1.35599,-0.65025 -0.24602,0 -0.38579,0.0684 -0.38579,0.18885 0,0.10387 0.1762,0.32711 0.39156,0.49609 0.21536,0.16899 0.83222,0.82057 1.37082,1.44796 0.53859,0.6274 1.21041,1.4906 1.49293,1.91823 0.28252,0.42763 1.22834,1.51353 2.10184,2.41311 0.87349,0.89958 2.25782,2.233057 3.0763,2.963307 0.81847,0.73024 2.03886,1.76693 2.71198,2.30375 0.76026,0.60634 1.8502,1.29555 2.87748,1.81955 0.9095,0.46392 2.54661,1.24517 3.63802,1.7361 1.0914,0.49093 2.87734,1.26951 3.96875,1.73017 1.0914,0.46066 2.05879,0.83862 2.14974,0.83991 0.0909,0.001 0.16536,-0.0546 0.16536,-0.12411 z m -2.5863,-0.52443 c -0.0691,-0.0669 -1.22701,-0.57967 -2.57307,-1.13939 -1.34607,-0.55972 -3.18416,-1.36765 -4.08464,-1.7954 -0.90048,-0.42776 -2.12087,-1.09966 -2.71198,-1.49313 -0.59109,-0.39347 -1.75639,-1.29814 -2.58953,-2.01038 -0.83314,-0.71223 -2.19543,-1.9535 -3.02732,-2.75836 -0.83188,-0.804867 -2.18144,-2.296827 -2.99901,-3.315477 -0.81757,-1.01864 -1.89606,-2.24312 -2.39664,-2.72105 -0.50058,-0.47794 -1.28893,-1.12468 -1.75189,-1.4372 -0.46296,-0.31252 -1.2096,-0.73502 -1.65921,-0.93888 -0.44961,-0.20387 -1.05309,-0.41386 -1.34107,-0.46665 -0.50359,-0.0923 -0.51552,-0.0864 -0.31221,0.15421 0.11626,0.13761 0.25941,0.33381 0.3181,0.436 0.0784,0.1366 0.0575,0.15633 -0.0791,0.0745 -0.10219,-0.0612 -0.48855,-0.33806 -0.85858,-0.61522 -0.53413,-0.40008 -0.99762,-0.58876 -2.24896,-0.91552 -0.8669,-0.22637 -1.71013,-0.4419 -1.87384,-0.47897 -0.16371,-0.0371 -0.29765,-0.005 -0.29765,0.0701 0,0.0756 0.73378,0.76179 1.63063,1.52482 0.89685,0.76303 1.90174,1.68886 2.23309,2.0574 0.33135,0.36855 1.00377,1.2729 1.49426,2.00967 0.49049,0.73677 1.36276,1.93075 1.93837,2.65327 0.57562,0.72253 1.47625,1.766447 2.00141,2.319817 0.52516,0.55337 1.52039,1.47856 2.21161,2.05599 0.69123,0.57744 1.85208,1.45379 2.57969,1.94746 0.7276,0.49367 1.7694,1.14043 2.3151,1.43724 0.54571,0.29682 1.52797,0.75488 2.18282,1.01792 0.65484,0.26304 1.86342,0.6579 2.68572,0.87747 0.82231,0.21956 3.02496,0.65649 4.89479,0.97095 1.86982,0.31446 3.63483,0.57822 3.92223,0.58613 0.32071,0.009 0.47401,-0.0326 0.39688,-0.10733 z m -7.46786,-1.7683 c -1.05503,-0.4565 -2.33495,-1.0755 -2.84427,-1.37555 -0.50932,-0.30006 -1.58088,-1.00345 -2.38124,-1.56311 -0.80037,-0.55966 -2.2912,-1.6908 -3.31296,-2.51365 -1.02176,-0.82285 -2.36122,-1.99383 -2.97656,-2.602167 -0.61535,-0.60835 -1.68923,-1.81951 -2.38639,-2.69147 -0.69717,-0.87196 -1.60502,-2.04359 -2.01745,-2.60361 -0.41243,-0.56002 -0.74773,-1.06603 -0.74512,-1.12448 0.003,-0.0584 0.13657,0.0478 0.29766,0.2361 0.16109,0.18829 1.16242,1.37891 2.22517,2.64583 1.06275,1.26691 2.40221,2.75298 2.97657,3.30236 0.57435,0.549387 1.5503,1.415527 2.16876,1.924767 0.61847,0.50924 1.89839,1.52554 2.84427,2.25846 0.94589,0.73291 2.13651,1.60076 2.64584,1.92855 0.50932,0.32779 1.95294,1.10962 3.20806,1.73741 1.25512,0.62778 2.28203,1.17086 2.28203,1.20683 0,0.036 -0.0149,0.065 -0.0331,0.0646 -0.0182,-3.9e-4 -0.89628,-0.37434 -1.9513,-0.83084 z m 8.52399,0.85102 c -0.0679,-0.0597 -0.65926,-0.48876 -1.3141,-0.95345 -0.65484,-0.4647 -1.8157,-1.32852 -2.57969,-1.91961 -0.76398,-0.5911 -1.71648,-1.28274 -2.11666,-1.537 -0.40019,-0.25425 -1.19251,-0.89758 -1.76073,-1.42962 -0.72247,-0.67648 -0.98268,-0.99852 -0.86538,-1.07101 0.1156,-0.0714 -1.04359,-1.32188 -3.72937,-4.022907 -2.14341,-2.15558 -4.16112,-4.09457 -4.48379,-4.30886 -0.36348,-0.24139 -0.68005,-0.35998 -0.83212,-0.31171 -0.1357,0.0431 -0.49448,-0.052 -0.80239,-0.21263 -0.30632,-0.1598 -0.89925,-0.32166 -1.31762,-0.3597 -0.41837,-0.038 -0.76068,-0.0383 -0.76068,-6e-4 0,0.0377 0.52776,0.48999 1.17279,1.00506 0.68828,0.54962 1.82888,1.69023 2.76096,2.76101 0.8735,1.00348 2.41446,2.62884 3.42435,3.61191 1.0099,0.983057 2.44687,2.276667 3.19328,2.874677 0.74641,0.59801 1.8775,1.43669 2.51354,1.86374 0.63603,0.42704 1.98987,1.25505 3.00851,1.84002 1.01865,0.58498 2.44309,1.36722 3.16542,1.73832 0.72234,0.3711 1.34345,0.64462 1.38024,0.60782 0.0368,-0.0368 0.0114,-0.11576 -0.0566,-0.17546 z m -10.18596,-7.8471 c -0.38856,-0.41943 -0.38856,-0.41943 0.0414,-0.12328 0.23647,0.16288 0.42995,0.35162 0.42995,0.41943 0,0.0678 -0.0186,0.12328 -0.0414,0.12328 -0.0228,0 -0.21625,-0.18874 -0.42995,-0.41943 z m -6.07984,-6.214947 c -0.65333,-0.66572 -1.00928,-1.08707 -0.791,-0.93633 0.21828,0.15075 0.69798,0.59126 1.06599,0.97891 0.36801,0.38765 0.74737,0.809 0.84302,0.93633 0.0956,0.12733 0.1505,0.23151 0.12188,0.23151 -0.0286,0 -0.58657,-0.54469 -1.23989,-1.21042 z m -8.95997,8.651897 c 0.0303,-0.0909 -0.0432,-0.203 -0.16329,-0.24908 -0.12008,-0.0461 -0.28058,-0.0215 -0.35666,0.0546 -0.0761,0.0761 -0.0963,0.20634 -0.0449,0.28947 0.0514,0.0831 0.18711,0.13297 0.30162,0.11075 0.11452,-0.0222 0.23298,-0.11478 0.26325,-0.20569 z m -2.24896,-1.5875 c 0.0303,-0.0909 -0.0432,-0.203 -0.16329,-0.24908 -0.12008,-0.0461 -0.28058,-0.0215 -0.35666,0.0546 -0.0761,0.0761 -0.0963,0.20634 -0.0449,0.28947 0.0514,0.0831 0.18711,0.13297 0.30162,0.11075 0.11452,-0.0222 0.23298,-0.11478 0.26325,-0.20569 z m 20.43188,-2.247207 c 0.0755,-0.091 0.1803,-1.16294 0.23289,-2.38217 0.0733,-1.69848 0.057,-2.25929 -0.0697,-2.39857 -0.12971,-0.14265 -0.79187,-0.18538 -3.07527,-0.19844 -1.60047,-0.009 -2.95012,0.0229 -2.9992,0.0712 -0.0491,0.0483 -0.0192,0.21874 0.0664,0.37867 0.0856,0.15993 0.46345,0.62639 0.83968,1.03659 0.37622,0.4102 1.40811,1.61383 2.29309,2.67474 0.88498,1.06092 1.74723,2.021297 1.9161,2.134197 0.30345,0.20286 0.3091,0.19733 0.48289,-0.4728 0.0967,-0.372937 0.23762,-0.752487 0.31311,-0.843457 z m -37.61079,-5.31253 c 0.13781,-0.13781 0.66293,-0.4914 1.16695,-0.78576 0.50401,-0.29435 1.69179,-0.92607 2.63951,-1.40381 1.28891,-0.64973 2.03307,-0.93485 2.95305,-1.13145 0.67645,-0.14456 1.55313,-0.41081 1.94818,-0.59167 0.45939,-0.21032 0.68431,-0.3838 0.62403,-0.48132 -0.0648,-0.10479 -0.37556,-0.12635 -0.99342,-0.0689 -0.49455,0.046 -1.60244,0.26394 -2.46198,0.4844 -0.85955,0.22046 -2.45578,0.70005 -3.54718,1.06576 -1.09141,0.36572 -2.70565,1.01147 -3.5872,1.43501 -0.88155,0.42355 -1.64729,0.84204 -1.70165,0.93 -0.0543,0.088 -0.0433,0.21549 0.0247,0.28341 0.0679,0.0679 0.56578,0.20371 1.10634,0.30173 0.54056,0.098 1.11678,0.18609 1.28049,0.1957 0.16371,0.01 0.41041,-0.0953 0.54821,-0.23308 z m -11.627635,-0.35128 c 0.40018,-0.16694 1.53127,-0.72144 2.51354,-1.23222 0.98226,-0.51079 2.738445,-1.34025 3.902605,-1.84326 1.16417,-0.503 2.62268,-1.07668 3.24115,-1.27484 0.61846,-0.19816 1.21377,-0.38891 1.32291,-0.42388 0.12332,-0.0395 0.14836,-0.0193 0.0661,0.0535 -0.0728,0.0644 -0.93596,0.43201 -1.91823,0.81692 -0.98226,0.38491 -2.73844,1.15537 -3.9026,1.71214 -1.164175,0.55677 -2.635175,1.29582 -3.268905,1.64234 -0.63373,0.34652 -1.1923,0.69486 -1.24127,0.77409 -0.0636,0.10285 0.66336,0.12549 2.5413,0.0791 2.082635,-0.0514 2.839115,-0.12122 3.633035,-0.33534 0.5515,-0.14874 1.74212,-0.62517 2.64584,-1.05873 0.90372,-0.43355 2.32773,-1.05618 3.16448,-1.3836 0.83674,-0.32742 1.93807,-0.73263 2.44739,-0.90046 0.50932,-0.16784 1.66542,-0.48786 2.56911,-0.71118 0.90369,-0.22331 1.66566,-0.47439 1.69326,-0.55794 0.0276,-0.0836 -0.22077,-0.25541 -0.55196,-0.38189 -0.43665,-0.16676 -0.82932,-0.21141 -1.42868,-0.16244 -0.49345,0.0403 -1.81276,0.38996 -3.27392,0.86767 -1.34606,0.44008 -3.16177,1.0198 -4.03489,1.28826 -1.00173,0.30799 -2.2465,0.83052 -3.37344,1.41608 -0.98226,0.51039 -2.159365,1.06929 -2.615785,1.242 -0.45641,0.1727 -0.89599,0.31401 -0.97683,0.31401 -0.0808,0 0.96064,-0.56457 2.314405,-1.2546 2.05317,-1.04653 3.0957,-1.47251 6.28585,-2.56843 2.10345,-0.7226 3.96082,-1.33377 4.12747,-1.35816 0.16666,-0.0244 0.32596,-0.11404 0.35399,-0.19923 0.0327,-0.0992 -0.21199,-0.18776 -0.68034,-0.24628 -0.40223,-0.0503 -1.39352,-0.0687 -2.20287,-0.041 -1.11918,0.0383 -1.50814,0.0986 -1.62439,0.25193 -0.10974,0.14472 -0.39538,0.20089 -1.01275,0.19916 -0.7282,-0.002 -1.12329,0.10212 -2.57969,0.68004 -0.94588,0.37533 -2.43416,0.97715 -3.307295,1.33736 -0.87312,0.36021 -2.62929,1.15836 -3.9026,1.77368 -1.27331,0.61531 -2.46393,1.24609 -2.64583,1.40174 -0.28123,0.24065 -0.30103,0.30288 -0.1323,0.4158 0.10914,0.073 0.4068,0.0964 0.66146,0.052 0.25466,-0.0445 0.79044,-0.21741 1.19063,-0.38435 z m 14.694525,-0.0594 c 1.12221,-0.21814 2.39756,-0.50733 2.83412,-0.64266 0.43656,-0.13532 1.56766,-0.52743 2.51354,-0.87134 0.94589,-0.34391 1.91327,-0.71634 2.14974,-0.82762 0.23647,-0.11128 0.42995,-0.28347 0.42995,-0.38264 0,-0.0992 -0.15355,-0.28092 -0.34122,-0.40389 -0.30202,-0.19789 -0.45681,-0.2056 -1.34748,-0.0671 -0.55345,0.086 -1.72447,0.39597 -2.60227,0.68872 -0.87781,0.29275 -2.62292,1.03238 -3.87804,1.64361 -1.25512,0.61123 -2.28203,1.14468 -2.28203,1.18545 0,0.0408 0.10875,0.0741 0.24166,0.0741 0.13292,0 1.15983,-0.17848 2.28203,-0.39661 z m 9.01516,-1.05146 c 0.35634,-0.0563 0.70878,-0.1633 0.78318,-0.23771 0.0922,-0.0922 0.0159,-0.2469 -0.23947,-0.48565 -0.20611,-0.1927 -0.4956,-0.38144 -0.6433,-0.41942 -0.1477,-0.038 -0.77278,0.0898 -1.38906,0.28395 -0.61628,0.19415 -1.43305,0.46949 -1.81504,0.61186 -0.382,0.14237 -0.69454,0.32217 -0.69454,0.39955 0,0.097 0.52001,0.11108 1.67516,0.0453 0.92134,-0.0525 1.96672,-0.14152 2.32307,-0.19785 z m 26.69343,138.692867 c 0,-0.11344 0.0595,-0.16945 0.13229,-0.12448 0.0728,0.045 0.13229,0.13778 0.13229,0.20624 0,0.0685 -0.0595,0.12448 -0.13229,0.12448 -0.0728,0 -0.13229,-0.0928 -0.13229,-0.20624 z m -5.68853,-0.45521 c 0,-0.0728 0.056,-0.1323 0.12448,-0.1323 0.0685,0 0.16128,0.0595 0.20625,0.1323 0.045,0.0728 -0.011,0.13229 -0.12449,0.13229 -0.11343,0 -0.20624,-0.0595 -0.20624,-0.13229 z m -83.079369,-0.20457 c -0.318753,-0.17641 -0.320203,-0.18309 -0.04068,-0.18762 0.159417,-0.003 0.329089,0.0588 0.37705,0.13641 0.04796,0.0776 0.06627,0.16203 0.04068,0.18762 -0.02559,0.0256 -0.195258,-0.0358 -0.37705,-0.13641 z m 75.935619,0.0864 c 0,-0.065 0.0942,-0.15428 0.20926,-0.19844 0.11509,-0.0442 0.2788,-0.0784 0.3638,-0.0761 0.085,0.002 0.039,0.0916 -0.10225,0.19844 -0.14124,0.10682 -0.30495,0.19423 -0.36381,0.19423 -0.0588,0 -0.107,-0.0532 -0.107,-0.11814 z M 57.563184,230.3825 c 0,-0.16166 0.06837,-0.25285 0.165365,-0.22056 0.09095,0.0303 0.184612,0.15431 0.208137,0.27562 0.02532,0.13053 -0.04217,0.22054 -0.165364,0.22054 -0.122719,0 -0.208138,-0.11311 -0.208138,-0.2756 z m 76.331086,-0.18596 c 0.0899,-0.10834 0.21723,-0.16375 0.28294,-0.12315 0.0657,0.0406 0.0852,0.12925 0.0434,0.19698 -0.0419,0.0677 -0.16919,0.12315 -0.28294,0.12315 -0.16817,0 -0.17627,-0.0368 -0.0434,-0.19698 z m -78.970013,-0.39001 c -0.139,-0.16748 -0.133113,-0.2174 0.03317,-0.2812 0.111189,-0.0427 0.370902,-0.0583 0.577139,-0.0346 0.226035,0.0259 0.374977,0.12176 0.374977,0.24138 0,0.1249 -0.151245,0.2132 -0.408143,0.23827 -0.247321,0.0241 -0.474733,-0.0404 -0.577138,-0.1638 z m 76.390953,0.0569 c -0.0453,-0.0733 0.0107,-0.16893 0.12449,-0.21259 0.11375,-0.0436 0.29989,-0.0436 0.41364,0 0.11375,0.0437 0.16977,0.13933 0.12449,0.21259 -0.0453,0.0733 -0.19438,0.13323 -0.33131,0.13323 -0.13693,0 -0.28602,-0.0599 -0.33131,-0.13323 z m 18.66603,-83.23302 c -0.11592,-0.16551 -0.21077,-0.40674 -0.21077,-0.53608 0,-0.12933 0.0552,-0.23514 0.12269,-0.23514 0.0675,0 0.24767,0.15889 0.40044,0.3531 0.15276,0.19421 0.25754,0.41373 0.23284,0.48783 -0.0247,0.0741 -0.11005,0.15643 -0.18966,0.18297 -0.0796,0.0265 -0.23961,-0.0872 -0.35554,-0.25268 z m 0.0538,-3.53315 c 0,-0.0639 0.0867,-0.18804 0.19264,-0.27597 0.10595,-0.0879 0.25478,-0.12148 0.33073,-0.0745 0.0759,0.0469 0.13809,0.17113 0.13809,0.27597 0,0.11515 -0.13097,0.19063 -0.33073,0.19063 -0.1819,0 -0.33073,-0.0522 -0.33073,-0.11609 z m 0.92604,-1.66984 c 0,-0.10915 0.0595,-0.19844 0.13229,-0.19844 0.0728,0 0.13229,0.0893 0.13229,0.19844 0,0.10914 -0.0595,0.19843 -0.13229,0.19843 -0.0728,0 -0.13229,-0.0893 -0.13229,-0.19843 z m -1.52135,-6.94532 c 0.045,-0.0728 0.17105,-0.13229 0.28019,-0.13229 0.10914,0 0.16165,0.0595 0.11668,0.13229 -0.045,0.0728 -0.17106,0.13229 -0.2802,0.13229 -0.10914,0 -0.16164,-0.0595 -0.11667,-0.13229 z m 0.59531,-30.48352 c 0,-0.12272 0.11311,-0.20814 0.27561,-0.20814 0.16165,0 0.25284,0.0684 0.22054,0.16537 -0.0303,0.0909 -0.1543,0.18461 -0.2756,0.20813 -0.13054,0.0253 -0.22055,-0.0422 -0.22055,-0.16536 z m 0,-2.32481 c 0,-0.0728 0.11906,-0.13229 0.26458,-0.13229 0.14552,0 0.26459,0.0595 0.26459,0.13229 0,0.0728 -0.11907,0.1323 -0.26459,0.1323 -0.14552,0 -0.26458,-0.0595 -0.26458,-0.1323 z"
       id="path543" /></g></svg>
